<svg width="306" height="418" viewBox="0 0 306 418" fill="none" xmlns="http://www.w3.org/2000/svg">
<rect x="200" width="3.06849" height="357.991" fill="#262E31"/>
<path d="M187.994 31.0154V124H177.097L126.428 50.9925H125.52V124H114.26V31.0154H125.156L176.007 104.204H176.916V31.0154H187.994Z" fill="#262E31"/>
<path d="M265.111 275.262C264.566 270.661 262.356 267.089 258.482 264.546C254.608 262.004 249.856 260.733 244.226 260.733C240.109 260.733 236.507 261.399 233.42 262.73C230.363 264.062 227.971 265.893 226.246 268.224C224.551 270.555 223.704 273.203 223.704 276.17C223.704 278.652 224.294 280.786 225.474 282.571C226.685 284.327 228.229 285.795 230.105 286.975C231.982 288.126 233.949 289.079 236.008 289.836C238.066 290.562 239.958 291.152 241.683 291.606L251.127 294.149C253.548 294.785 256.242 295.662 259.208 296.782C262.205 297.902 265.065 299.431 267.79 301.368C270.544 303.275 272.814 305.727 274.6 308.723C276.386 311.72 277.279 315.397 277.279 319.756C277.279 324.781 275.962 329.321 273.329 333.377C270.726 337.433 266.912 340.656 261.887 343.048C256.893 345.439 250.824 346.634 243.681 346.634C237.022 346.634 231.256 345.56 226.382 343.411C221.539 341.262 217.726 338.265 214.941 334.421C212.186 330.577 210.628 326.112 210.264 321.027H221.888C222.19 324.539 223.371 327.444 225.429 329.745C227.517 332.015 230.151 333.71 233.329 334.83C236.537 335.919 239.988 336.464 243.681 336.464C247.979 336.464 251.838 335.768 255.258 334.376C258.679 332.953 261.388 330.986 263.386 328.473C265.383 325.931 266.382 322.965 266.382 319.575C266.382 316.487 265.519 313.975 263.794 312.038C262.069 310.1 259.799 308.527 256.984 307.316C254.169 306.105 251.127 305.046 247.858 304.138L236.416 300.869C229.152 298.78 223.401 295.799 219.163 291.924C214.926 288.05 212.807 282.98 212.807 276.714C212.807 271.508 214.214 266.968 217.029 263.094C219.875 259.189 223.688 256.162 228.471 254.013C233.284 251.834 238.656 250.744 244.589 250.744C250.582 250.744 255.909 251.819 260.571 253.968C265.232 256.086 268.925 258.992 271.649 262.685C274.403 266.378 275.856 270.57 276.007 275.262H265.111Z" fill="#262E31"/>
<path d="M25 406.15L23.6 402.9L8.3 383.7V396.15L9 406H4L4.7 396.1V385.6L4 375.85L8.7 375.65L10.1 379L24.5 397.1V385.6L23.8 375.75H28.8L28.1 385.65V394.95L28.8 406L25 406.15ZM41.4625 406.75C39.3292 406.75 37.6792 406.183 36.5125 405.05C35.3792 403.883 34.8125 402.3 34.8125 400.3C34.8125 398.3 35.6292 396.817 37.2625 395.85C38.8958 394.883 42.3292 393.917 47.5625 392.95C47.5625 390.417 47.2792 388.667 46.7125 387.7C46.1458 386.733 45.1292 386.25 43.6625 386.25C42.8625 386.25 42.2292 386.283 41.7625 386.35L37.5625 390.05L35.3125 386.3C37.8792 384.267 40.7458 383.25 43.9125 383.25C49.1458 383.25 51.7625 385.883 51.7625 391.15V400.4L52.6625 406.05L48.0125 406.75L47.8125 404.25C45.7458 405.917 43.6292 406.75 41.4625 406.75ZM39.0625 400.1C39.0625 401.2 39.3958 402.067 40.0625 402.7C40.7625 403.333 41.8292 403.65 43.2625 403.65C44.7292 403.65 46.1625 403.133 47.5625 402.1V395.8C44.3625 396.267 41.6458 396.983 39.4125 397.95C39.1792 398.85 39.0625 399.567 39.0625 400.1ZM56.9176 386.7L56.7676 384.75L61.2676 383.3L62.9176 377.6H65.0676L65.3676 383.3H71.6676L71.5176 385.95L65.2176 386.4V398.85C65.2176 400.617 65.3842 401.85 65.7176 402.55C66.0842 403.217 66.7842 403.55 67.8176 403.55C68.8842 403.55 70.0176 403.383 71.2176 403.05L70.7676 405.9C69.6342 406.467 68.1509 406.75 66.3176 406.75C64.4842 406.75 63.1176 406.25 62.2176 405.25C61.3509 404.25 60.9176 402.533 60.9176 400.1C60.9176 399.267 61.0176 394.8 61.2176 386.7H56.9176ZM76.2004 406L76.9004 396.1V377.65L76.1504 372.5L81.5504 372L81.0004 381.8V385.95C83.7004 384.183 86.4171 383.3 89.1504 383.3C92.6504 383.3 94.4004 385.6 94.4004 390.2V406L89.5004 406.25L90.2004 395.5V390.15C90.2004 388.917 90.0004 388.05 89.6004 387.55C89.2004 387.017 88.5337 386.75 87.6004 386.75C85.5671 386.75 83.3671 387.367 81.0004 388.6V396.15L81.5504 406H76.2004ZM106.843 406.75C104.71 406.75 103.06 406.183 101.893 405.05C100.76 403.883 100.193 402.3 100.193 400.3C100.193 398.3 101.01 396.817 102.643 395.85C104.277 394.883 107.71 393.917 112.943 392.95C112.943 390.417 112.66 388.667 112.093 387.7C111.527 386.733 110.51 386.25 109.043 386.25C108.243 386.25 107.61 386.283 107.143 386.35L102.943 390.05L100.693 386.3C103.26 384.267 106.127 383.25 109.293 383.25C114.527 383.25 117.143 385.883 117.143 391.15V400.4L118.043 406.05L113.393 406.75L113.193 404.25C111.127 405.917 109.01 406.75 106.843 406.75ZM104.443 400.1C104.443 401.2 104.777 402.067 105.443 402.7C106.143 403.333 107.21 403.65 108.643 403.65C110.11 403.65 111.543 403.133 112.943 402.1V395.8C109.743 396.267 107.027 396.983 104.793 397.95C104.56 398.85 104.443 399.567 104.443 400.1ZM106.093 380.9L104.943 379.3L111.893 372.55L114.843 375.8L106.093 380.9ZM124.198 406L124.898 396.1V377.65L124.148 372.5L129.548 372L128.998 381.8V396.15L129.548 406H124.198ZM133.758 411.55L138.608 411.1C139.908 409.3 141.024 407.433 141.958 405.5L133.508 384.05L138.858 383.7L139.458 388.4L143.958 400.8C145.458 396.933 146.908 393 148.308 389L148.858 384.05H154.058L146.608 403.05C144.841 407.583 143.091 410.817 141.358 412.75C139.658 414.683 137.591 415.767 135.158 416L133.758 411.55ZM162.947 406.75C160.814 406.75 159.164 406.183 157.997 405.05C156.864 403.883 156.297 402.3 156.297 400.3C156.297 398.3 157.114 396.817 158.747 395.85C160.38 394.883 163.814 393.917 169.047 392.95C169.047 390.417 168.764 388.667 168.197 387.7C167.63 386.733 166.614 386.25 165.147 386.25C164.347 386.25 163.714 386.283 163.247 386.35L159.047 390.05L156.797 386.3C159.364 384.267 162.23 383.25 165.397 383.25C170.63 383.25 173.247 385.883 173.247 391.15V400.4L174.147 406.05L169.497 406.75L169.297 404.25C167.23 405.917 165.114 406.75 162.947 406.75ZM160.547 400.1C160.547 401.2 160.88 402.067 161.547 402.7C162.247 403.333 163.314 403.65 164.747 403.65C166.214 403.65 167.647 403.133 169.047 402.1V395.8C165.847 396.267 163.13 396.983 160.897 397.95C160.664 398.85 160.547 399.567 160.547 400.1ZM190.25 405.15L191.95 400.1C193.883 401.367 195.45 402.233 196.65 402.7C197.883 403.167 199.15 403.4 200.45 403.4C202.65 403.4 204.383 402.733 205.65 401.4C205.75 400.9 205.8 400.383 205.8 399.85C205.8 398.283 205.267 396.967 204.2 395.9C203.167 394.833 201.9 393.983 200.4 393.35C198.933 392.717 197.45 392.05 195.95 391.35C194.45 390.65 193.167 389.65 192.1 388.35C191.067 387.05 190.55 385.433 190.55 383.5C190.55 381 191.583 378.983 193.65 377.45C195.75 375.917 198.5 375.15 201.9 375.15C204.267 375.15 206.483 375.617 208.55 376.55L207.1 381.25C204.3 379.383 201.983 378.45 200.15 378.45C198.35 378.45 196.533 379.017 194.7 380.15C194.7 382.117 195.217 383.733 196.25 385C197.283 386.233 198.55 387.183 200.05 387.85C201.55 388.517 203.033 389.183 204.5 389.85C206 390.517 207.267 391.483 208.3 392.75C209.333 393.983 209.85 395.583 209.85 397.55C209.85 400.217 208.767 402.417 206.6 404.15C204.467 405.883 201.883 406.75 198.85 406.75C195.817 406.75 192.95 406.217 190.25 405.15ZM224.898 406.75C221.798 406.75 219.381 405.767 217.648 403.8C215.948 401.833 215.098 399.033 215.098 395.4C215.098 391.733 216.014 388.8 217.848 386.6C219.681 384.4 222.148 383.3 225.248 383.3C228.381 383.3 230.798 384.283 232.498 386.25C234.231 388.183 235.098 390.983 235.098 394.65C235.098 398.283 234.181 401.217 232.348 403.45C230.514 405.65 228.031 406.75 224.898 406.75ZM225.648 403.7C226.648 403.7 227.714 403.533 228.848 403.2C229.948 401.633 230.498 399.167 230.498 395.8C230.498 392.4 229.998 389.983 228.998 388.55C228.031 387.083 226.514 386.35 224.448 386.35C223.681 386.35 222.648 386.517 221.348 386.85C220.248 388.383 219.698 390.85 219.698 394.25C219.698 397.65 220.164 400.083 221.098 401.55C222.064 402.983 223.581 403.7 225.648 403.7ZM241.348 399.85V384.15L246.248 383.9L245.548 394.65V399.9C245.548 401.133 245.748 402.017 246.148 402.55C246.548 403.05 247.214 403.3 248.148 403.3C250.148 403.3 252.348 402.683 254.748 401.45L254.148 384.15L258.948 383.9V400.95L259.698 406.1L254.748 406.6V404.1C252.048 405.867 249.331 406.75 246.598 406.75C244.898 406.75 243.598 406.167 242.698 405C241.798 403.8 241.348 402.083 241.348 399.85ZM264.545 406.3L264.195 404.6L275.445 387.3H270.795L265.595 388.45L265.245 383.8L277.695 384.3L281.195 383.75L281.545 385.45L270.295 402.75H276.445L281.545 401.65L281.995 406.25L267.945 405.75L264.545 406.3ZM291.902 406.75C289.769 406.75 288.119 406.183 286.952 405.05C285.819 403.883 285.252 402.3 285.252 400.3C285.252 398.3 286.069 396.817 287.702 395.85C289.335 394.883 292.769 393.917 298.002 392.95C298.002 390.417 297.719 388.667 297.152 387.7C296.585 386.733 295.569 386.25 294.102 386.25C293.302 386.25 292.669 386.283 292.202 386.35L288.002 390.05L285.752 386.3C288.319 384.267 291.185 383.25 294.352 383.25C299.585 383.25 302.202 385.883 302.202 391.15V400.4L303.102 406.05L298.452 406.75L298.252 404.25C296.185 405.917 294.069 406.75 291.902 406.75ZM289.502 400.1C289.502 401.2 289.835 402.067 290.502 402.7C291.202 403.333 292.269 403.65 293.702 403.65C295.169 403.65 296.602 403.133 298.002 402.1V395.8C294.802 396.267 292.085 396.983 289.852 397.95C289.619 398.85 289.502 399.567 289.502 400.1Z" fill="#262E31"/>
<path d="M185.279 141.984L184.146 142.74L181.705 151.759C179.662 159.31 178.239 167.015 177.449 174.797L176.958 179.635L174.562 188.5L172.646 194.729L171.231 197.963C171.061 198.351 171.029 198.785 171.141 199.193C171.432 200.261 172.589 200.837 173.617 200.426L174.725 199.983C175.092 199.836 175.425 199.616 175.705 199.337L177.338 197.704C178.357 196.685 179.214 195.517 179.881 194.239L181.75 190.656L185.344 181.792L187.236 178.179C187.727 177.241 188.39 176.405 189.189 175.712L190.029 174.984C191.025 174.121 192.298 173.646 193.616 173.646H194.129C195.253 173.646 196.332 174.093 197.128 174.888C197.572 175.332 197.912 175.869 198.123 176.461L198.661 177.967C198.885 178.595 199 179.258 199 179.925C199 181.139 198.621 182.323 197.915 183.31L197.285 184.193C196.833 184.826 196.463 185.513 196.184 186.239L190.615 200.719L188.458 204.792L185.289 211.13C184.693 212.322 183.852 213.374 182.821 214.217C182.111 214.798 181.32 215.273 180.472 215.626L179.821 215.898C179.192 216.16 178.537 216.353 177.867 216.475L177.584 216.526C176.694 216.688 175.84 217.002 175.057 217.455C172.934 218.684 171.509 220.836 171.205 223.27L170.969 225.156L169.484 232.143C167.762 240.248 165.342 248.188 162.252 255.876L158.371 265.531C157.508 267.679 156.849 269.904 156.405 272.176C155.423 277.191 155.499 282.355 156.628 287.339L156.977 288.88C157.518 291.272 157.792 293.717 157.792 296.169C157.792 299.126 157.394 302.07 156.61 304.921L152.521 319.792V323.188C152.521 326.775 153.427 330.304 155.156 333.448L158.75 338.719L162.104 341.594L165.658 343.266C166.003 343.429 166.363 343.56 166.732 343.658L167.84 343.954C169.057 344.278 170.055 345.15 170.54 346.314C170.82 346.988 170.914 347.725 170.811 348.448L170.711 349.147C170.568 350.149 170.077 351.069 169.325 351.746C168.532 352.459 167.504 352.854 166.437 352.854H160.906L136.948 334.646V324.583L132.156 317.156L126.646 326.021V329.854L127.503 332.425C127.73 333.106 128.01 333.768 128.341 334.404L129.554 336.736C130.453 338.465 132.004 339.764 133.865 340.346C134.48 340.538 135.067 340.811 135.611 341.157L136.654 341.82C137.166 342.146 137.617 342.557 137.99 343.036L138.398 343.561C138.856 344.149 139.104 344.873 139.104 345.619V346.106C139.104 346.883 138.729 347.612 138.097 348.063C137.663 348.373 137.138 348.53 136.605 348.509L125.208 348.062L114.667 331.531L113.948 329.135V327.938V321.948H112.51L109.875 335.125L107.924 340.653C107.309 342.395 106.549 344.083 105.652 345.698L105.04 346.798C103.956 348.75 102.605 350.54 101.027 352.119C100.059 353.087 99.011 353.97 97.8932 354.759L96.2435 355.923C95.7485 356.272 95.2279 356.584 94.686 356.855L94.4653 356.965C92.9399 357.728 91.258 358.125 89.5526 358.125H87.538C86.9465 358.125 86.3653 357.971 85.8518 357.677C85.2692 357.344 84.7982 356.846 84.4981 356.246L84.3212 355.892C84.11 355.47 84 355.004 84 354.532C84 353.908 84.192 353.299 84.5499 352.787L85.141 351.943C85.4964 351.435 85.9248 350.982 86.4122 350.599L89.0312 348.542L92.788 346.037C93.6356 345.472 94.4253 344.825 95.1456 344.104C96.6437 342.606 97.818 340.816 98.5959 338.846L101.01 332.729L102.448 323.385L103.675 313.705C104.294 308.826 105.287 304.001 106.646 299.274L108.957 291.236C109.725 288.562 110.839 286 112.271 283.615L112.99 281.938L122.812 254.146L130 225.156V209.583L127.604 202.635L124.25 198.562L120.896 194.25L118.021 188.74L116.583 182.51V177L116.344 176.76L115.879 175.238C114.44 170.529 113.708 165.632 113.708 160.708C116.382 160.708 119.015 161.367 121.375 162.625L124.969 164.542V155.198L125.688 154.479L132.635 162.385H147.969H148.323C149.774 162.385 151.156 163.006 152.12 164.09C152.386 164.39 152.616 164.721 152.805 165.075L153.816 166.97C154.23 167.746 154.584 168.552 154.877 169.381C155.538 171.252 155.875 173.222 155.875 175.206V177.222C155.875 177.761 156.312 178.198 156.851 178.198H157.347C157.781 178.198 158.193 178.007 158.472 177.675L163.952 171.186C166.04 168.713 167.468 165.752 168.103 162.579L171.688 144.656L172.163 141.642C172.325 140.62 172.6 139.619 172.984 138.659C173.238 138.026 173.537 137.413 173.88 136.824L174.363 135.996C174.815 135.222 175.323 134.482 175.883 133.782L176.679 132.787C176.865 132.554 177.072 132.34 177.298 132.146L177.523 131.954C178.241 131.338 179.155 131 180.101 131C180.401 131 180.7 131.034 180.992 131.101L181.189 131.147C182.767 131.511 184.118 132.524 184.909 133.937L186.522 136.818C186.849 137.402 187.021 138.06 187.021 138.729C187.021 140.037 186.367 141.259 185.279 141.984Z" fill="#262E31"/>
</svg>
