<svg width="16" height="16" viewBox="0 0 16 16" fill="none" xmlns="http://www.w3.org/2000/svg">
<g clip-path="url(#clip0_8_24)">
<path d="M15.6981 7.287L8.71208 0.302001C8.61643 0.206303 8.50286 0.130388 8.37786 0.078594C8.25286 0.0267998 8.11888 0.000141144 7.98358 0.000141144C7.84828 0.000141144 7.7143 0.0267998 7.5893 0.078594C7.4643 0.130388 7.35073 0.206303 7.25508 0.302001L5.80508 1.752L7.64508 3.592C7.86208 3.51791 8.09555 3.50632 8.31882 3.55855C8.5421 3.61078 8.74619 3.72473 8.90781 3.88739C9.06944 4.05006 9.18207 4.25488 9.23286 4.47849C9.28366 4.70209 9.27057 4.93548 9.19508 5.152L10.9681 6.926C11.2304 6.83364 11.5163 6.83336 11.7788 6.92521C12.0413 7.01705 12.2647 7.19555 12.4122 7.4313C12.5597 7.66706 12.6226 7.94601 12.5904 8.22224C12.5582 8.49847 12.4329 8.75549 12.2351 8.951C12.0349 9.15245 11.7709 9.27813 11.4883 9.30658C11.2057 9.33503 10.922 9.26449 10.6857 9.107C10.4493 8.94951 10.275 8.71484 10.1924 8.44309C10.1099 8.17133 10.1243 7.87934 10.2331 7.617L8.58008 5.963V10.316C8.83134 10.4404 9.03238 10.6471 9.1497 10.9017C9.26701 11.1564 9.29352 11.4435 9.22479 11.7153C9.15606 11.9871 8.99625 12.2271 8.77201 12.3954C8.54776 12.5637 8.27261 12.65 7.99244 12.64C7.71226 12.63 7.44398 12.5242 7.23231 12.3404C7.02063 12.1566 6.87836 11.9058 6.82919 11.6297C6.78003 11.3537 6.82695 11.0692 6.96213 10.8236C7.09731 10.578 7.31259 10.3861 7.57208 10.28V5.887C7.42237 5.82566 7.28628 5.73528 7.17166 5.6211C7.05704 5.50691 6.96616 5.37116 6.90424 5.22168C6.84233 5.07221 6.81062 4.91195 6.81094 4.75016C6.81125 4.58837 6.84359 4.42824 6.90608 4.279L5.09308 2.465L0.303081 7.255C0.207382 7.35065 0.131468 7.46422 0.0796735 7.58922C0.0278793 7.71422 0.0012207 7.8482 0.0012207 7.9835C0.0012207 8.11881 0.0278793 8.25278 0.0796735 8.37778C0.131468 8.50278 0.207382 8.61635 0.303081 8.712L7.28908 15.698C7.38473 15.7937 7.4983 15.8696 7.6233 15.9214C7.7483 15.9732 7.88228 15.9999 8.01758 15.9999C8.15289 15.9999 8.28686 15.9732 8.41186 15.9214C8.53686 15.8696 8.65043 15.7937 8.74608 15.698L15.6991 8.745C15.8921 8.55169 16.0005 8.28968 16.0005 8.0165C16.0005 7.74332 15.8921 7.48131 15.6991 7.288" fill="black"/>
</g>
<defs>
<clipPath id="clip0_8_24">
<rect width="16" height="16" fill="white"/>
</clipPath>
</defs>
</svg>
