<svg width="22" height="24" viewBox="0 0 22 24" fill="none" xmlns="http://www.w3.org/2000/svg">
<g clip-path="url(#clip0_8_17)">
<path d="M7.827 5.156C6.44458 4.87628 5.01882 4.8899 3.642 5.196L3.709 5.184C3.20213 5.28225 2.72101 5.48414 2.29581 5.77702C1.8706 6.06989 1.51048 6.44744 1.238 6.886L1.229 6.902C0.835319 7.56852 0.686767 8.3516 0.809 9.116L0.807 9.097C0.947 10.065 1.269 10.934 1.738 11.705L1.721 11.675C1.753 11.725 1.794 11.766 1.842 11.796L1.844 11.797C1.89369 11.8241 1.94941 11.8382 2.006 11.838H2.022H2.021C2.05977 11.8366 2.09786 11.8274 2.13306 11.8111C2.16826 11.7948 2.19985 11.7717 2.226 11.743C2.25499 11.7173 2.27839 11.686 2.29473 11.6509C2.31107 11.6158 2.32002 11.5777 2.321 11.539V11.534C2.32099 11.5028 2.31627 11.4718 2.307 11.442L2.308 11.444C2.2995 11.4223 2.29477 11.3993 2.294 11.376C1.86756 10.6872 1.58173 9.92081 1.453 9.121L1.448 9.085C1.34227 8.44211 1.46128 7.78242 1.785 7.217L1.778 7.231C2.02316 6.85566 2.34216 6.53416 2.71557 6.28608C3.08898 6.038 3.50899 5.86853 3.95 5.788L3.97 5.785C5.21765 5.52495 6.50589 5.5287 7.752 5.796L7.692 5.785H7.696C7.71 5.785 7.723 5.79 7.733 5.799L7.747 5.813H7.753C7.79512 5.81313 7.83683 5.80479 7.87565 5.78847C7.91448 5.77214 7.94963 5.74818 7.979 5.718C8.0092 5.68822 8.03315 5.65271 8.04946 5.61357C8.06577 5.57442 8.07412 5.53241 8.074 5.49V5.469C8.07401 5.39588 8.04974 5.32483 8.005 5.267L8.006 5.268C7.96048 5.21449 7.89924 5.1767 7.831 5.16H7.829L7.827 5.156ZM3.354 13.883C4.03138 14.5961 4.75495 15.2639 5.52 15.882L5.562 15.915C6.288 16.502 7.098 17.065 7.948 17.568L8.042 17.62C9.10831 18.2311 10.2239 18.7519 11.377 19.177L11.536 19.229C12.482 19.591 13.597 19.89 14.75 20.075L14.849 20.088C15.34 20.171 15.905 20.218 16.481 20.218C16.921 20.218 17.354 20.19 17.779 20.137L17.728 20.142C18.522 20.0541 19.2849 19.7837 19.957 19.352L19.936 19.364C19.972 19.3278 20.0035 19.2876 20.03 19.244L20.032 19.241C20.059 19.1967 20.0732 19.1458 20.073 19.094V19.088C20.0731 19.0456 20.0648 19.0036 20.0485 18.9644C20.0321 18.9253 20.0082 18.8898 19.978 18.86C19.9482 18.8298 19.9127 18.8058 19.8736 18.7895C19.8344 18.7732 19.7924 18.7649 19.75 18.765H19.746C19.7173 18.7684 19.6897 18.7779 19.665 18.793L19.666 18.792C19.6366 18.806 19.6096 18.8245 19.586 18.847C18.9727 19.235 18.2765 19.4728 17.554 19.541L17.535 19.542C16.6161 19.6421 15.6877 19.6125 14.777 19.454L14.836 19.462C13.735 19.2821 12.6542 18.9951 11.609 18.605L11.727 18.644C10.5676 18.226 9.45244 17.6941 8.398 17.056L8.482 17.103C7.59443 16.597 6.74635 16.0247 5.945 15.391L5.987 15.423C5.22689 14.8241 4.51473 14.1668 3.857 13.457L3.846 13.445C3.81175 13.4108 3.77093 13.384 3.726 13.366L3.724 13.365C3.6855 13.3481 3.64405 13.3389 3.602 13.338H3.597C3.55459 13.3379 3.51258 13.3462 3.47343 13.3625C3.43428 13.3788 3.39878 13.4028 3.369 13.433C3.3388 13.4628 3.31485 13.4983 3.29854 13.5374C3.28223 13.5766 3.27388 13.6186 3.274 13.661V13.665C3.274 13.705 3.284 13.742 3.302 13.775L3.301 13.774L3.354 13.883ZM19.146 13.474C20.0624 12.4778 20.7537 11.296 21.173 10.009L21.192 9.942C21.3292 9.54786 21.3985 9.13332 21.397 8.716C21.397 8.061 21.23 7.445 20.937 6.908L20.947 6.928C20.5696 6.28427 19.9939 5.78011 19.306 5.491L19.283 5.483C18.4545 5.1379 17.5655 4.96179 16.668 4.965H16.636H16.638H16.627C16.5877 4.96493 16.5488 4.97339 16.5131 4.98979C16.4773 5.00619 16.4456 5.03014 16.42 5.06C16.3681 5.1219 16.3397 5.20019 16.34 5.281V5.293V5.292V5.303C16.34 5.387 16.37 5.464 16.421 5.524V5.523C16.4465 5.55296 16.4782 5.57698 16.514 5.59339C16.5497 5.6098 16.5887 5.6182 16.628 5.618H16.64H16.639C16.689 5.616 16.749 5.616 16.808 5.616C17.592 5.616 18.341 5.772 19.023 6.055L18.985 6.041C19.5647 6.27828 20.0573 6.68815 20.396 7.215L20.403 7.227C20.6065 7.63392 20.7242 8.07833 20.7488 8.53264C20.7734 8.98696 20.7044 9.44148 20.546 9.868L20.553 9.845C20.1622 11.0393 19.5236 12.1376 18.679 13.068L18.685 13.061L18.631 13.17C18.6132 13.2036 18.6039 13.241 18.604 13.279V13.283C18.604 13.372 18.64 13.453 18.699 13.511C18.7288 13.5412 18.7643 13.5651 18.8034 13.5815C18.8426 13.5978 18.8846 13.6061 18.927 13.606H18.939C18.9852 13.6061 19.0303 13.5918 19.068 13.565H19.067C19.1 13.5399 19.1351 13.5178 19.172 13.499L19.176 13.497L19.146 13.474ZM13.882 5.266C12.7917 5.51939 11.7236 5.86016 10.688 6.285L10.828 6.234C9.746 6.674 8.84 7.127 7.974 7.639L8.074 7.584C6.94675 8.23026 5.88333 8.98196 4.898 9.829L4.925 9.807C4.0632 10.5404 3.27756 11.3589 2.58 12.25L2.552 12.287C1.96474 13.0323 1.49002 13.8598 1.143 14.743L1.12 14.809C0.8943 15.3665 0.779164 15.9626 0.781 16.564C0.781 16.773 0.795 16.979 0.821 17.18L0.818 17.156C0.837 17.231 0.875 17.296 0.927 17.347C0.98 17.397 1.051 17.427 1.13 17.427H1.147H1.146H1.152C1.19416 17.4271 1.23592 17.4188 1.27488 17.4027C1.31384 17.3865 1.34922 17.3628 1.379 17.333C1.4092 17.3032 1.43315 17.2677 1.44946 17.2286C1.46577 17.1894 1.47412 17.1474 1.474 17.105V17.047C1.39305 16.3177 1.5019 15.5799 1.79 14.905L1.779 14.933C2.11409 14.0802 2.57706 13.2834 3.152 12.57L3.139 12.587C3.81568 11.7391 4.57473 10.9602 5.405 10.262L5.43 10.242C6.35253 9.46214 7.34127 8.76416 8.385 8.156L8.484 8.102C9.198 7.672 10.04 7.247 10.913 6.882L11.044 6.834C11.9202 6.46859 12.8236 6.17235 13.746 5.948L13.88 5.92C13.9901 5.89966 14.0933 5.85185 14.18 5.781L14.179 5.782C14.2307 5.7271 14.2594 5.65442 14.259 5.579V5.562V5.563C14.2576 5.52423 14.2484 5.48614 14.2321 5.45094C14.2158 5.41574 14.1927 5.38414 14.164 5.358C14.1383 5.32901 14.107 5.30561 14.0719 5.28927C14.0368 5.27292 13.9987 5.26398 13.96 5.263H13.88L13.882 5.266ZM6.273 19.142C6.70797 20.464 7.41671 21.6794 8.353 22.709L8.346 22.701C8.68532 23.0936 9.10247 23.4114 9.57103 23.6343C10.0396 23.8572 10.5493 23.9804 11.068 23.996H11.074C11.8269 23.9897 12.5573 23.7388 13.155 23.281L13.147 23.287C13.8479 22.7575 14.4358 22.0931 14.876 21.333L14.893 21.301C14.9083 21.2721 14.9214 21.242 14.932 21.211L14.934 21.206C14.9434 21.1769 14.9481 21.1466 14.948 21.116V21.106C14.9481 21.0636 14.9398 21.0216 14.9235 20.9824C14.9072 20.9433 14.8832 20.9078 14.853 20.878C14.8232 20.8478 14.7877 20.8238 14.7486 20.8075C14.7094 20.7912 14.6674 20.7829 14.625 20.783H14.619C14.5664 20.7829 14.5148 20.7975 14.47 20.825L14.471 20.824C14.4222 20.8548 14.3808 20.8962 14.35 20.945L14.349 20.947C13.9581 21.6317 13.4394 22.2349 12.821 22.724L12.808 22.734C12.3144 23.1231 11.7064 23.3388 11.078 23.348H11.076C10.628 23.3269 10.1893 23.2122 9.78834 23.0112C9.38737 22.8102 9.03297 22.5274 8.748 22.181L8.744 22.175C7.9274 21.2491 7.30752 20.1668 6.922 18.994L6.904 18.929C6.86599 18.8734 6.82057 18.8233 6.769 18.78L6.768 18.779C6.71594 18.7351 6.65007 18.7111 6.582 18.711H6.577C6.53823 18.7124 6.50014 18.7216 6.46494 18.7379C6.42974 18.7542 6.39815 18.7773 6.372 18.806C6.3418 18.8358 6.31785 18.8713 6.30154 18.9104C6.28523 18.9496 6.27688 18.9916 6.277 19.034V19.147L6.273 19.142ZM16.091 18.57C16.343 17.791 16.562 16.852 16.706 15.889L16.718 15.789C16.857 14.889 16.936 13.851 16.936 12.795V12.76V12.762V12.526C16.936 11.208 16.817 9.918 16.589 8.667L16.609 8.798C16.4101 7.63444 16.0858 6.49582 15.642 5.402L15.682 5.512C15.3254 4.60253 14.8375 3.75016 14.234 2.982L14.25 3.003C13.7784 2.38287 13.1672 1.88267 12.466 1.543L12.437 1.53C12.4283 1.52133 12.4181 1.51448 12.4067 1.50984C12.3954 1.50521 12.3832 1.50288 12.371 1.503H12.29C12.209 1.50282 12.1307 1.53155 12.069 1.584H12.07C12.04 1.6095 12.016 1.64123 11.9996 1.67699C11.9832 1.71275 11.9748 1.75166 11.975 1.791V1.803V1.802V1.81C11.975 1.878 11.995 1.942 12.03 1.995L12.029 1.994C12.061 2.044 12.108 2.082 12.163 2.102L12.165 2.103C12.8141 2.41934 13.3774 2.88758 13.807 3.468L13.816 3.48C14.332 4.16 14.772 4.938 15.102 5.773L15.125 5.839C15.487 6.729 15.79 7.777 15.983 8.862L15.997 8.959C16.197 10.031 16.311 11.264 16.311 12.524V12.604V12.6V12.78C16.3115 13.7964 16.234 14.8114 16.079 15.816L16.093 15.706C15.9456 16.7023 15.7148 17.6844 15.403 18.642L15.439 18.515L15.466 18.435V18.466C15.466 18.555 15.502 18.636 15.561 18.694C15.5908 18.7242 15.6263 18.7481 15.6654 18.7645C15.7046 18.7808 15.7466 18.7891 15.789 18.789H15.798C15.8663 18.7888 15.9325 18.7647 15.985 18.721C16.0329 18.684 16.0701 18.635 16.093 18.579L16.094 18.577L16.091 18.57ZM22.146 18.242V18.222C22.146 17.807 21.974 17.432 21.697 17.164C21.5574 17.0213 21.3906 16.908 21.2065 16.8307C21.0224 16.7534 20.8247 16.7137 20.625 16.714H20.59H20.592H20.573C20.157 16.714 19.782 16.887 19.515 17.164C19.238 17.432 19.065 17.807 19.065 18.222V18.243V18.242V18.274C19.065 18.694 19.237 19.074 19.515 19.346C19.783 19.624 20.158 19.797 20.574 19.797H20.594H20.593H20.626C21.046 19.797 21.425 19.625 21.698 19.347C21.8403 19.2073 21.9533 19.0406 22.0304 18.8567C22.1074 18.6728 22.1471 18.4754 22.147 18.276V18.239V18.241L22.146 18.242ZM21.491 18.242V18.262C21.4912 18.3774 21.4684 18.4916 21.4239 18.5981C21.3795 18.7045 21.3142 18.8011 21.232 18.882C21.1511 18.9642 21.0545 19.0295 20.9481 19.0739C20.8416 19.1184 20.7274 19.1412 20.612 19.141H20.591H20.592H20.589C20.473 19.1411 20.3582 19.1183 20.2511 19.0738C20.144 19.0294 20.0468 18.9642 19.965 18.882C19.8788 18.8025 19.8101 18.706 19.7631 18.5986C19.7161 18.4912 19.6919 18.3752 19.692 18.258V18.241V18.242C19.6923 18.1245 19.7165 18.0082 19.7633 17.9004C19.8101 17.7926 19.8784 17.6955 19.964 17.615C20.0443 17.529 20.1414 17.4605 20.2492 17.4135C20.357 17.3665 20.4734 17.3422 20.591 17.342H20.607C20.853 17.342 21.075 17.447 21.23 17.614L21.231 17.615C21.391 17.775 21.49 17.996 21.49 18.24V18.242H21.491ZM1.554 19.801H1.573C1.988 19.801 2.363 19.629 2.631 19.352C2.77387 19.2122 2.88737 19.0453 2.96482 18.861C3.04227 18.6768 3.08211 18.4789 3.082 18.279V18.228C3.082 17.812 2.909 17.437 2.632 17.17C2.495 17.0277 2.33068 16.9144 2.14889 16.8371C1.96709 16.7598 1.77156 16.72 1.574 16.72H1.553H1.554H1.522C1.102 16.72 0.722 16.892 0.45 17.17C0.173 17.438 0 17.813 0 18.228V18.249V18.248V18.28C0 18.7 0.172 19.08 0.45 19.352C0.589713 19.4943 0.756391 19.6073 0.940285 19.6843C1.12418 19.7614 1.3216 19.8011 1.521 19.801H1.556H1.554ZM1.554 19.146H1.534C1.41863 19.1462 1.30438 19.1234 1.19792 19.0789C1.09147 19.0345 0.994945 18.9692 0.914 18.887C0.831792 18.8061 0.766545 18.7095 0.722074 18.6031C0.677603 18.4966 0.654801 18.3824 0.655 18.267V18.244C0.655 18 0.754 17.78 0.914 17.62C0.993491 17.5338 1.08998 17.4651 1.19739 17.4181C1.30479 17.3711 1.42077 17.3469 1.538 17.347H1.555H1.554C1.801 17.348 2.024 17.452 2.181 17.619C2.26696 17.6993 2.33554 17.7964 2.3825 17.9042C2.42946 18.012 2.45379 18.1284 2.454 18.246V18.262C2.45409 18.379 2.42997 18.4947 2.38316 18.6019C2.33635 18.7092 2.26786 18.8055 2.182 18.885L2.181 18.886C2.01583 19.0497 1.79256 19.1414 1.56 19.141H1.554V19.146ZM11.074 3.082H11.107C11.527 3.082 11.906 2.91 12.179 2.632C12.457 2.364 12.63 1.989 12.63 1.573V1.521C12.63 1.101 12.458 0.721998 12.18 0.448998C12.0404 0.306291 11.8736 0.192961 11.6895 0.115679C11.5054 0.0383974 11.3077 -0.00127467 11.108 -0.00100187H11.073H11.075H11.056C10.64 -0.00100187 10.265 0.171998 9.998 0.448998C9.72 0.721998 9.548 1.101 9.548 1.521V1.556V1.554V1.573C9.548 1.989 9.721 2.364 9.998 2.631C10.266 2.908 10.641 3.081 11.056 3.081H11.073H11.072L11.074 3.082ZM11.074 2.428H11.067C10.9537 2.42814 10.8416 2.40525 10.7374 2.36073C10.6332 2.31621 10.5392 2.25098 10.461 2.169C10.379 2.09081 10.3138 1.99677 10.2693 1.8926C10.2247 1.78842 10.2019 1.67629 10.202 1.563V1.535C10.202 1.292 10.301 1.073 10.461 0.914998C10.5392 0.833019 10.6332 0.767788 10.7374 0.723265C10.8416 0.678742 10.9537 0.655856 11.067 0.655998H11.095C11.338 0.655998 11.557 0.754998 11.715 0.914998C11.875 1.073 11.974 1.292 11.974 1.535V1.556V1.555V1.562C11.9741 1.67529 11.9513 1.78742 11.9067 1.8916C11.8622 1.99577 11.797 2.08981 11.715 2.168C11.6341 2.25055 11.5374 2.31608 11.4308 2.36074C11.3241 2.40539 11.2096 2.42826 11.094 2.428H11.074H11.075H11.074ZM11.32 13.692C11.2832 13.7098 11.2429 13.719 11.202 13.719H11.055C10.752 13.719 10.478 13.594 10.282 13.392C10.1783 13.2916 10.0959 13.1713 10.0397 13.0383C9.98348 12.9053 9.95469 12.7624 9.955 12.618V12.577C9.955 12.279 10.081 12.011 10.282 11.823L10.283 11.822C10.481 11.628 10.753 11.508 11.053 11.508H11.075H11.074H11.095C11.357 11.508 11.597 11.601 11.785 11.755L11.783 11.754C11.971 11.902 12.106 12.109 12.163 12.347L12.164 12.354V12.365C12.164 12.409 12.169 12.452 12.178 12.494L12.177 12.49C12.186 12.523 12.191 12.56 12.191 12.599V12.62C12.191 12.882 12.098 13.122 11.944 13.31L11.945 13.308C11.79 13.5 11.574 13.638 11.326 13.69L11.319 13.691L11.32 13.692Z" fill="black"/>
</g>
<defs>
<clipPath id="clip0_8_17">
<rect width="22" height="24" fill="white"/>
</clipPath>
</defs>
</svg>
