<svg width="100" height="100" viewBox="0 0 100 100" fill="none" xmlns="http://www.w3.org/2000/svg">
<circle cx="50" cy="50" r="50" fill="#B092D8"/>
<path d="M21.0068 41.2939C20.8063 40.6652 20.7061 40.0366 20.7061 39.408C20.7061 36.5093 21.0068 34.5011 21.6081 33.3836C22.2345 32.2311 23.0488 31.6548 24.0511 31.6548C25.0784 31.6548 25.8802 32.266 26.4565 33.4883C27.0579 34.7107 27.3585 36.3346 27.3585 38.3602V58.6337C27.3585 64.5009 26.469 67.4346 24.69 67.4346C23.7629 67.4346 22.8991 67.7489 22.1224 66.9107C21.3707 66.0376 21.0348 65.1936 21.0348 63.2728C21.0348 62.26 21.0198 61.5673 21.3456 60.7291C21.6964 59.856 22.1474 59.175 22.6986 58.6861C23.2498 58.1622 23.8261 57.9003 24.4275 57.9003C24.5778 57.9003 24.7658 57.9876 24.9913 58.1622C25.2168 58.3019 25.3295 58.4067 25.3295 58.4765L25.1792 58.6861C25.104 58.8258 25.0664 59.0179 25.0664 59.2623C25.0664 59.4719 25.1165 59.6989 25.2168 59.9433C25.317 60.1529 25.4799 60.2577 25.7054 60.2577C25.9058 60.2577 26.0562 60.1703 26.1564 59.9957C26.2817 59.7862 26.3443 59.5592 26.3443 59.3147C26.3443 58.8258 26.194 58.3718 25.8933 57.9527C25.5926 57.5336 25.1291 57.324 24.5027 57.324C23.3501 57.324 22.3979 57.9352 21.6462 59.1575C20.8946 60.3799 20.5187 61.8292 20.5187 63.5056C20.5187 65.636 20.9196 67.1901 21.7214 68.168C22.5232 69.1109 23.8005 69.5824 24.878 69.5824C26.8825 69.5824 28.3733 68.3251 29.3505 65.8106C30.3528 63.2611 30.8539 59.8211 30.8539 55.4905V48.7851C30.8539 45.4673 31.0919 42.5162 31.568 39.9318C31.8436 38.3253 32.2195 36.9458 32.6955 35.7933C33.1716 34.6408 33.8231 33.6804 34.6499 32.9121C35.5018 32.1088 36.4916 31.7072 37.6191 31.7072C40.5256 31.7072 41.9789 35.8282 41.9789 44.0703V55.7524C41.9789 59.629 42.4299 62.65 43.3319 64.8153C44.259 66.9456 45.8751 68.0108 48.1803 68.0108C49.834 68.0108 51.162 67.1028 52.1643 65.2867C53.1665 63.4707 52.272 60 52.5 58C52.5 56.6729 52.728 56.3548 52.728 55.9096C52.6028 55.8048 52.4148 55.7524 52.1643 55.7524C51.9388 55.7524 51.8135 55.8572 51.7884 56.0668C51.7884 62.6325 50.9866 65.601 48.6313 65.601C47.6792 65.601 46.9024 64.9899 46.3011 63.7675C45.7248 62.5452 45.4367 60.9212 45.4367 58.8956V44.0703C45.4367 39.5302 44.7852 35.9156 43.4823 33.2264C42.1793 30.5023 40.2249 29.1228 37.6191 29.0879C35.9403 29.0879 34.4745 29.7864 33.2217 31.1833C31.9689 32.5803 31.0669 34.4487 30.5156 36.7887C29.8892 31.7596 27.9223 29.2451 24.6149 29.2451C22.6104 29.2451 21.0068 30.1182 19.8041 31.8644C18.6014 33.5756 18 35.8108 18 38.5698C18 39.7572 18.1754 40.6128 18.5262 41.1367C18.902 41.6606 19.353 41.9225 19.8792 41.9225C20.4054 41.9225 20.7812 41.713 21.0068 41.2939Z" fill="white"/>
<path d="M53.0209 64.5253C52.0578 62.7158 51.5762 60.5851 51.5762 58.1334C51.5762 55.8568 51.9556 53.8284 52.7145 52.048C53.5025 50.2384 54.3489 48.7936 55.2537 47.7137C56.1877 46.6046 57.3114 45.729 58.6248 45.0869C59.9674 44.4156 61.3829 44.08 62.8715 44.08C64.9729 44.08 66.6512 44.6783 67.9062 45.875L73.6414 41.0591C73.5247 40.0376 73.4663 39.0307 73.4663 38.0383C73.4663 31.5588 75.1737 28.3191 78.5886 28.3191C79.4642 28.3191 80.1501 28.6256 80.6462 29.2385C81.1424 29.8514 81.4197 30.6394 81.4781 31.6026C81.5072 33.0036 81.0549 34.4045 80.1209 35.8055C79.2161 37.2065 77.8735 38.7388 76.0931 40.4024C76.9979 46.4441 77.4503 50.5594 77.4503 52.7485C77.4503 54.9083 77.173 57.0097 76.6185 59.0528C76.0639 61.0667 75.2175 62.9055 74.0792 64.5691C72.9409 66.2328 71.3794 67.5316 69.3947 68.4656C67.41 69.3995 65.1043 69.8665 62.4774 69.8665C58.7123 69.8665 55.8666 68.5823 53.9403 66.0139C53.4149 67.8526 53.1523 69.9395 53.1523 72.2744C53.1523 74.6386 53.7652 76.7546 54.991 78.6226C56.2461 80.5197 58.5445 81.5 60.5 81.5C60.6459 81.5 61 81.7081 61 82C61.0292 82.2919 59.982 82.3439 59.8069 82.3439C57.5011 82.3439 55.604 81.2494 54.1154 79.0604C52.6269 76.9005 51.8826 74.4926 51.8826 71.8366C51.8826 69.1806 52.2621 66.7435 53.0209 64.5253ZM68.6505 46.7068C69.4677 47.8159 69.8763 49.0709 69.8763 50.4719C69.8763 51.8437 69.6574 53.0841 69.2196 54.1932C68.811 55.2731 68.0667 56.2363 66.9868 57.0827C65.9361 57.8999 64.7102 58.3085 63.3093 58.3085C63.0174 58.3085 62.7839 58.2356 62.6088 58.0896C62.4629 57.9437 62.3607 57.7102 62.3023 57.3892C63.5574 57.3892 64.7102 56.8054 65.761 55.6379C67.2787 54.0035 68.0375 52.1647 68.0375 50.1216C68.0375 49.2752 67.877 48.458 67.556 47.6699C64.287 50.4719 61.5289 53.2154 59.2815 55.9006C57.0341 58.5858 55.3851 61.5045 54.3343 64.6567C55.998 67.3419 58.6102 68.6845 62.171 68.6845C64.36 68.6845 66.2717 68.2175 67.9062 67.2835C69.5698 66.3787 70.8687 65.1383 71.8026 63.5622C73.6414 60.4684 74.5608 56.7179 74.5608 52.3106C74.5608 51.2307 74.2981 47.9472 73.7727 42.4601L68.6505 46.7068ZM66.8992 46.7506C65.9653 45.7582 64.6811 45.262 63.0466 45.262C61.4121 45.262 59.9382 45.6561 58.6248 46.4441C56.2023 47.9034 54.4657 50.3551 53.4149 53.7992C52.948 55.2585 52.7145 56.7616 52.7145 58.3085C52.7145 60.0306 52.9917 61.6212 53.5463 63.0806C55.5602 58.0313 60.0112 52.5879 66.8992 46.7506ZM75.6991 35.8055C75.6991 36.5936 75.772 37.6443 75.918 38.9577C78.8075 36.1266 80.2522 33.7332 80.2522 31.7777C80.2522 30.26 79.6977 29.5012 78.5886 29.5012C76.6622 29.5012 75.6991 31.6026 75.6991 35.8055Z" fill="white"/>
<path d="M65.5 75C65.5 75 65.3066 78.3251 63.875 79.8125C62.7137 81.0191 59 82 59 82H65.5V75Z" fill="white"/>
<path d="M65.5 75C65.5 75 65.6934 78.3251 67.125 79.8125C68.2863 81.0191 72 82 72 82H65.5V75Z" fill="white"/>
<path d="M65.5 89C65.5 89 65.3066 85.6749 63.875 84.1875C62.7137 82.9809 59 82 59 82H65.5V89Z" fill="white"/>
<path d="M65.5 89C65.5 89 65.6934 85.6749 67.125 84.1875C68.2863 82.9809 72 82 72 82H65.5V89Z" fill="white"/>
</svg>
