<svg width="175" height="39" viewBox="0 0 175 39" fill="none" xmlns="http://www.w3.org/2000/svg">
<path d="M1.60401 12.96C1.49707 12.6246 1.44361 12.2893 1.44361 11.9539C1.44361 10.4075 1.60401 9.33627 1.92481 8.74008C2.25898 8.12527 2.69339 7.81786 3.22806 7.81786C3.7761 7.81786 4.20383 8.1439 4.51127 8.79598C4.83207 9.44806 4.99247 10.3144 4.99247 11.395V22.2102C4.99247 25.3402 4.51795 26.9052 3.56891 26.9052C3.07435 26.9052 2.61351 27.0729 2.19914 26.6257C1.79814 26.16 1.61899 25.7097 1.61899 24.685C1.61899 24.1447 1.61098 23.7752 1.78475 23.3281C1.97188 22.8623 2.21249 22.499 2.50655 22.2382C2.80062 21.9587 3.10806 21.819 3.42886 21.819C3.50906 21.819 3.60931 21.8655 3.72961 21.9587C3.84991 22.0332 3.91006 22.0891 3.91006 22.1264L3.82986 22.2382C3.78976 22.3127 3.76971 22.4151 3.76971 22.5456C3.76971 22.6573 3.79644 22.7784 3.84991 22.9089C3.90338 23.0206 3.99026 23.0765 4.11056 23.0765C4.21749 23.0765 4.29769 23.03 4.35116 22.9368C4.41799 22.825 4.45141 22.7039 4.45141 22.5735C4.45141 22.3127 4.37121 22.0705 4.21081 21.8469C4.05041 21.6233 3.80313 21.5115 3.46896 21.5115C2.85409 21.5115 2.34615 21.8376 1.94515 22.4897C1.54415 23.1417 1.34365 23.9149 1.34365 24.8092C1.34365 25.9457 1.55752 26.7748 1.98525 27.2964C2.41299 27.7995 3.0944 28.051 3.66916 28.051C4.7385 28.051 5.53382 27.3803 6.05512 26.0388C6.58979 24.6788 6.85713 22.8437 6.85713 20.5334V16.9563C6.85713 15.1864 6.98411 13.6121 7.23808 12.2334C7.38511 11.3764 7.58561 10.6404 7.83958 10.0256C8.09355 9.4108 8.44108 8.89845 8.88219 8.48857C9.33665 8.06006 9.86464 7.8458 10.4661 7.8458C12.0167 7.8458 12.792 10.0442 12.792 14.4411V20.6732C12.792 22.7412 13.0326 24.3528 13.5138 25.5079C14.0083 26.6444 14.8705 27.2126 16.1002 27.2126C16.9824 27.2126 17.6909 26.7282 18.2255 25.7594C18.7602 24.7906 19.0275 23.5237 19.0275 21.9587C19.0275 21.2507 18.9273 20.7943 18.7268 20.5893C18.6599 20.5334 18.5597 20.5055 18.426 20.5055C18.3057 20.5055 18.2389 20.5614 18.2255 20.6732C18.2255 24.1758 17.5973 25.9271 16.3408 25.9271C15.8329 25.9271 15.4185 25.601 15.0977 24.9489C14.7903 24.2969 14.6366 23.4305 14.6366 22.3499V14.4411C14.6366 12.0191 14.289 10.0908 13.594 8.65625C12.8989 7.20304 11.8563 6.46712 10.4661 6.44849C9.57057 6.44849 8.78862 6.8211 8.12028 7.56634C7.45195 8.31157 6.97075 9.30833 6.67668 10.5566C6.34251 7.87375 5.29322 6.53233 3.52881 6.53233C2.45948 6.53233 1.60401 6.9981 0.962404 7.92964C0.320802 8.84256 0 10.0349 0 11.5068C0 12.1402 0.0935676 12.5967 0.280702 12.8761C0.481202 13.1556 0.721803 13.2953 1.0025 13.2953C1.28321 13.2953 1.48371 13.1835 1.60401 12.96Z" fill="white"/>
<path d="M28.0151 17.4983C28.2303 17.0183 28.5696 16.7783 29.033 16.7783C29.513 16.7783 29.8689 16.8942 30.1006 17.1259V24.2512C30.1006 25.1946 30.2496 25.9063 30.5475 26.3863C30.8454 26.8662 31.2509 27.1062 31.764 27.1062C33.3198 27.1062 34.0977 25.4925 34.0977 22.265C34.1143 22.1657 34.2384 22.1161 34.4701 22.1161C34.768 22.1161 34.917 22.5547 34.917 23.4319C34.917 24.8387 34.6108 25.9642 33.9984 26.8083C33.4026 27.6524 32.5584 28.0745 31.4661 28.0745C29.7944 28.0745 28.6855 27.338 28.1393 25.8649C27.8248 26.5435 27.3945 27.0814 26.8483 27.4786C26.3021 27.8759 25.6814 28.0745 24.9863 28.0745C22.0898 28.0745 20.6416 26.1794 20.6416 22.3892C20.6416 20.4692 21.0885 19.0541 21.9822 18.1438C22.8926 17.2335 24.0925 16.7783 25.5821 16.7783C26.7242 16.7783 27.5352 17.0183 28.0151 17.4983ZM23.3477 25.4428C23.5794 26.1711 23.8443 26.6345 24.1422 26.8331C24.4401 27.0152 24.8373 27.1062 25.3339 27.1062C25.8304 27.1062 26.3683 26.8 26.9476 26.1876C27.5434 25.5587 27.8414 24.7477 27.8414 23.7546V20.3534C27.8414 19.5755 27.6345 18.9465 27.2207 18.4665C26.8235 17.9865 26.3683 17.7466 25.8552 17.7466C25.3587 17.7466 24.9615 17.7962 24.6635 17.8955C24.3656 17.9948 24.0842 18.2017 23.8194 18.5162C23.2732 19.112 23.0001 20.403 23.0001 22.3892C23.0001 23.6967 23.116 24.7146 23.3477 25.4428ZM34.146 14.6184C34.146 14.1218 34.2701 13.7494 34.5184 13.5012C34.7667 13.2364 35.0811 13.1039 35.4618 13.1039C35.8425 13.1039 36.1487 13.2198 36.3804 13.4515V17.1259H39.7817C40.1292 17.1259 40.3527 17.1921 40.452 17.3245C40.5679 17.4569 40.6258 17.6803 40.6258 17.9948H36.3804V24.2512C36.3804 25.1615 36.6369 25.8649 37.15 26.3614C37.6797 26.858 38.2838 27.1062 38.9624 27.1062C39.9886 27.1062 40.7416 26.7256 41.2216 25.9642C41.7016 25.2029 41.9416 23.9698 41.9416 22.265C41.9747 22.1657 42.0988 22.1161 42.314 22.1161C42.6119 22.1161 42.7609 22.5547 42.7609 23.4319C42.7609 24.7725 42.4216 25.8815 41.743 26.7587C41.0809 27.6359 40.0548 28.0745 38.6645 28.0745C37.2742 28.0745 36.1735 27.7104 35.3625 26.9821C34.5515 26.2539 34.146 25.1698 34.146 23.7298V14.6184ZM55.4574 22.1161C55.7554 22.1161 55.9043 22.5547 55.9043 23.4319C55.9043 24.7063 55.5733 25.7987 54.9112 26.709C54.2658 27.6193 53.4216 28.0745 52.3789 28.0745C51.3362 28.0745 50.4673 27.7104 49.7721 26.9821C49.0935 26.2373 48.7542 25.2856 48.7542 24.127V20.6016C48.7542 18.632 48.2577 17.6472 47.2646 17.6472C46.3874 17.6472 45.6674 18.0941 45.1047 18.9879C44.5419 19.8817 44.2606 21.3795 44.2606 23.4815V27.7269C44.0951 27.9586 43.8054 28.0745 43.3916 28.0745C42.9779 28.0745 42.6468 27.9503 42.3986 27.7021C42.1503 27.4373 42.0262 27.0566 42.0262 26.56V14.1218C42.0262 11.9702 42.2331 10.4144 42.6468 9.45442C43.0606 8.4779 43.8551 7.98964 45.0302 7.98964C45.6591 7.98964 46.1474 8.25446 46.495 8.78409C46.8426 9.31373 47.0163 10.0668 47.0163 11.0433C47.0163 12.8143 46.0978 14.6184 44.2606 16.4556V18.6403C44.9557 17.399 46.0564 16.7783 47.5625 16.7783C48.6384 16.7783 49.4907 17.1176 50.1197 17.7962C50.7652 18.4748 51.0879 19.4513 51.0879 20.7258V24.2512C51.0879 25.1946 51.2369 25.9063 51.5348 26.3863C51.8327 26.8662 52.2713 27.1062 52.8506 27.1062C53.4299 27.1062 53.943 26.7173 54.3899 25.9394C54.8533 25.1449 55.085 23.9201 55.085 22.265C55.1016 22.1657 55.2257 22.1161 55.4574 22.1161ZM44.2606 15.2639C45.3861 13.8074 45.9488 12.3922 45.9488 11.0185C45.9488 9.64475 45.6509 8.95788 45.055 8.95788C44.724 8.95788 44.5088 9.33856 44.4095 10.0999C44.3102 10.8613 44.2606 12.5826 44.2606 15.2639ZM62.4914 17.4983C62.7065 17.0183 63.0458 16.7783 63.5093 16.7783C63.9892 16.7783 64.3451 16.8942 64.5768 17.1259V24.2512C64.5768 25.1946 64.7258 25.9063 65.0237 26.3863C65.3216 26.8662 65.7271 27.1062 66.2402 27.1062C67.796 27.1062 68.5739 25.4925 68.5739 22.265C68.5905 22.1657 68.7146 22.1161 68.9463 22.1161C69.2442 22.1161 69.3932 22.5547 69.3932 23.4319C69.3932 24.8387 69.087 25.9642 68.4746 26.8083C67.8788 27.6524 67.0347 28.0745 65.9423 28.0745C64.2706 28.0745 63.1617 27.338 62.6155 25.8649C62.301 26.5435 61.8707 27.0814 61.3245 27.4786C60.7783 27.8759 60.1576 28.0745 59.4625 28.0745C56.566 28.0745 55.1178 26.1794 55.1178 22.3892C55.1178 20.4692 55.5647 19.0541 56.4585 18.1438C57.3688 17.2335 58.5687 16.7783 60.0583 16.7783C61.2004 16.7783 62.0114 17.0183 62.4914 17.4983ZM57.8239 25.4428C58.0556 26.1711 58.3205 26.6345 58.6184 26.8331C58.9163 27.0152 59.3135 27.1062 59.8101 27.1062C60.3066 27.1062 60.8445 26.8 61.4238 26.1876C62.0197 25.5587 62.3176 24.7477 62.3176 23.7546V20.3534C62.3176 19.5755 62.1107 18.9465 61.6969 18.4665C61.2997 17.9865 60.8445 17.7466 60.3314 17.7466C59.8349 17.7466 59.4377 17.7962 59.1397 17.8955C58.8418 17.9948 58.5605 18.2017 58.2956 18.5162C57.7494 19.112 57.4764 20.403 57.4764 22.3892C57.4764 23.6967 57.5922 24.7146 57.8239 25.4428ZM60.2073 14.966C59.9756 14.966 59.7687 14.8915 59.5866 14.7425C59.4211 14.577 59.2804 14.337 59.1646 14.0225L61.8707 9.20615C62.1852 8.65996 62.5824 8.38687 63.0624 8.38687C63.2941 8.38687 63.4927 8.46962 63.6582 8.63513C63.8403 8.78409 63.9975 9.01581 64.1299 9.33028L61.3742 14.1715C61.0597 14.7011 60.6707 14.966 60.2073 14.966ZM75.9213 22.1161C76.2192 22.1161 76.3682 22.5547 76.3682 23.4319C76.3682 24.7063 76.0206 25.7987 75.3254 26.709C74.6303 27.6193 73.7448 28.0745 72.669 28.0745C71.3283 28.0745 70.327 27.6773 69.6649 26.8828C69.0029 26.0883 68.6719 24.9629 68.6719 23.5064V14.1715C68.6719 12.0364 68.8953 10.4723 69.3422 9.47924C69.7891 8.48617 70.5752 7.98964 71.7007 7.98964C73.3393 7.98964 74.1586 9.09857 74.1586 11.3164C74.1586 12.9881 73.8276 14.3287 73.1655 15.3384C72.52 16.348 71.7752 17.1011 70.9311 17.5976V24.2512C70.9311 25.1946 71.1132 25.9063 71.4773 26.3863C71.8414 26.8662 72.3379 27.1062 72.9669 27.1062C73.5958 27.1062 74.1834 26.7256 74.7296 25.9642C75.2758 25.2029 75.5489 23.9698 75.5489 22.265C75.582 22.1657 75.7061 22.1161 75.9213 22.1161ZM73.091 11.3412C73.091 9.75234 72.6938 8.95788 71.8993 8.95788C71.7007 8.95788 71.5435 9.02409 71.4276 9.15649C71.3283 9.2889 71.2373 9.61993 71.1545 10.1496C71.0056 10.9606 70.9311 13.0957 70.9311 16.5549C72.371 15.5121 73.091 13.7743 73.091 11.3412ZM75.5562 18.2927C75.5562 17.7962 75.6804 17.4238 75.9286 17.1755C76.1769 16.9107 76.4914 16.7783 76.8721 16.7783C77.2527 16.7783 77.5589 16.8942 77.7907 17.1259V24.2512C77.7907 26.2207 78.2872 27.2055 79.2803 27.2055C80.174 27.2055 80.9023 26.7338 81.465 25.7904C82.0443 24.847 82.3339 23.2581 82.3339 21.0237V18.2927C82.3339 17.7962 82.4581 17.4238 82.7063 17.1755C82.9546 16.9107 83.2691 16.7783 83.6498 16.7783C84.0304 16.7783 84.3366 16.8942 84.5684 17.1259V29.7379C84.767 29.7213 85.0814 29.713 85.5118 29.713C85.9421 29.713 86.1573 29.8951 86.1573 30.2592L86.0083 30.6316C85.3794 30.6316 84.8994 30.6399 84.5684 30.6565V31.8978C84.5684 33.6026 84.1794 34.9432 83.4015 35.9197C82.6401 36.9128 81.614 37.4093 80.323 37.4093C79.5616 37.4093 78.883 37.1776 78.2872 36.7142C77.7079 36.2673 77.4183 35.5556 77.4183 34.5791C77.4183 33.3212 77.8651 32.3199 78.7589 31.5751C79.6527 30.8302 80.8443 30.3089 82.3339 30.011V26.138C81.6388 27.429 80.5216 28.0745 78.9823 28.0745C77.9231 28.0745 77.0872 27.7352 76.4748 27.0566C75.8624 26.378 75.5562 25.4015 75.5562 24.127V18.2927ZM78.6844 34.6536C78.6844 35.2329 78.8417 35.6715 79.1561 35.9694C79.4706 36.2839 79.8513 36.4411 80.2982 36.4411C80.745 36.4411 81.1092 36.3087 81.3905 36.0439C82.0195 35.4811 82.3339 33.7846 82.3339 30.9544C79.9009 31.5006 78.6844 32.7336 78.6844 34.6536ZM95.028 17.4983C95.2431 17.0183 95.5824 16.7783 96.0459 16.7783C96.5259 16.7783 96.8817 16.8942 97.1134 17.1259V24.2512C97.1134 25.1946 97.2624 25.9063 97.5603 26.3863C97.8582 26.8662 98.2637 27.1062 98.7768 27.1062C100.333 27.1062 101.111 25.4925 101.111 22.265C101.127 22.1657 101.251 22.1161 101.483 22.1161C101.781 22.1161 101.93 22.5547 101.93 23.4319C101.93 24.8387 101.624 25.9642 101.011 26.8083C100.415 27.6524 99.5713 28.0745 98.4789 28.0745C96.8072 28.0745 95.6983 27.338 95.1521 25.8649C94.8376 26.5435 94.4073 27.0814 93.8611 27.4786C93.3149 27.8759 92.6943 28.0745 91.9991 28.0745C89.1027 28.0745 87.6544 26.1794 87.6544 22.3892C87.6544 20.4692 88.1013 19.0541 88.9951 18.1438C89.9054 17.2335 91.1054 16.7783 92.595 16.7783C93.737 16.7783 94.548 17.0183 95.028 17.4983ZM90.3606 25.4428C90.5923 26.1711 90.8571 26.6345 91.155 26.8331C91.4529 27.0152 91.8502 27.1062 92.3467 27.1062C92.8432 27.1062 93.3811 26.8 93.9604 26.1876C94.5563 25.5587 94.8542 24.7477 94.8542 23.7546V20.3534C94.8542 19.5755 94.6473 18.9465 94.2335 18.4665C93.8363 17.9865 93.3811 17.7466 92.8681 17.7466C92.3715 17.7466 91.9743 17.7962 91.6764 17.8955C91.3784 17.9948 91.0971 18.2017 90.8323 18.5162C90.2861 19.112 90.013 20.403 90.013 22.3892C90.013 23.6967 90.1288 24.7146 90.3606 25.4428Z" fill="white"/>
<path d="M129.302 16.7784C130.775 16.7784 131.975 17.2667 132.902 18.2432C133.829 19.2197 134.292 20.5521 134.292 22.2403C134.292 23.912 133.854 25.3023 132.976 26.4112C132.116 27.5201 130.957 28.0746 129.501 28.0746C128.044 28.0746 126.828 27.5781 125.851 26.585C124.891 25.5754 124.411 24.1851 124.411 22.4141C124.411 20.6266 124.858 19.2446 125.752 18.268C126.662 17.275 127.846 16.7784 129.302 16.7784ZM129.327 17.7467C128.88 17.7467 128.491 17.8625 128.16 18.0942C127.846 18.3094 127.688 18.6239 127.688 19.0377C127.688 20.0969 128.102 21.1148 128.93 22.0914C129.757 23.0513 130.742 23.6885 131.884 24.003C131.917 23.3741 131.934 22.8362 131.934 22.3893C131.934 20.668 131.752 19.468 131.388 18.7894C131.023 18.0942 130.337 17.7467 129.327 17.7467ZM126.77 22.3893C126.77 24.0775 126.977 25.2857 127.39 26.014C127.821 26.7422 128.516 27.1064 129.476 27.1064C130.138 27.1064 130.643 26.9408 130.99 26.6098C131.354 26.2622 131.603 25.7078 131.735 24.9464C130.659 24.7147 129.666 24.2265 128.756 23.4817C127.862 22.7369 127.208 21.9093 126.795 20.999C126.778 21.2803 126.77 21.7438 126.77 22.3893ZM142.676 18.2929C142.676 17.7963 142.816 17.4239 143.098 17.1757C143.379 16.9108 143.719 16.7784 144.116 16.7784C144.513 16.7784 144.827 16.8943 145.059 17.126V24.2513C145.059 25.1947 145.208 25.9064 145.506 26.3864C145.804 26.8664 146.209 27.1064 146.723 27.1064C147.236 27.1064 147.732 26.8084 148.212 26.2126C148.775 25.5009 149.056 24.1851 149.056 22.2651C149.073 22.1658 149.197 22.1162 149.429 22.1162C149.727 22.1162 149.876 22.5548 149.876 23.432C149.876 24.8388 149.569 25.9643 148.957 26.8084C148.361 27.6525 147.517 28.0746 146.425 28.0746C144.687 28.0746 143.545 27.2884 142.999 25.7161C142.353 27.2884 141.17 28.0746 139.448 28.0746C138.422 28.0746 137.595 27.7684 136.966 27.156C136.337 26.5271 136.022 25.6333 136.022 24.4747V18.2929C136.022 17.7963 136.146 17.4239 136.395 17.1757C136.643 16.9108 136.957 16.7784 137.338 16.7784C137.719 16.7784 138.025 16.8943 138.257 17.126V24.2513C138.257 26.2209 138.753 27.2057 139.746 27.2057C140.491 27.2057 141.161 26.7588 141.757 25.865C142.37 24.9713 142.676 23.7134 142.676 22.0914V18.2929ZM149.586 23.1093C149.371 23.1093 149.247 22.9686 149.214 22.6872C149.214 22.0583 149.164 21.2969 149.065 20.4031C148.949 19.5094 148.891 18.8556 148.891 18.4418C148.891 18.028 149.023 17.697 149.288 17.4488C149.553 17.1839 150.05 17.0515 150.778 17.0515H158.648C158.962 17.0846 159.12 17.2667 159.12 17.5977C159.12 19.1866 158.656 20.7011 157.729 22.141C156.819 23.5644 155.735 24.6733 154.477 25.4678C155.305 25.7657 156.058 26.2374 156.736 26.8829C157.415 27.5119 157.928 28.2649 158.276 29.1422C158.656 29.1256 159.252 29.1173 160.063 29.1173C160.361 29.1173 160.568 29.1835 160.684 29.3159C160.8 29.4649 160.857 29.6221 160.857 29.7876L160.709 30.16C160.229 30.16 159.525 30.1766 158.598 30.2097C158.714 30.7559 158.772 31.2607 158.772 31.7241C158.772 33.4289 158.309 34.8027 157.382 35.8454C156.471 36.9047 155.23 37.4343 153.658 37.4343C152.681 37.4343 151.804 37.1695 151.026 36.6398C150.265 36.1102 149.884 35.2661 149.884 34.1075C149.884 31.4924 152.019 29.9035 156.289 29.3408C155.876 27.5367 154.833 26.4609 153.161 26.1133C152.731 26.2622 152.325 26.3367 151.945 26.3367C151.713 26.254 151.597 26.0719 151.597 25.7905C151.597 25.3602 151.961 25.145 152.689 25.145C153.616 25.145 154.494 24.3837 155.321 22.861C156.149 21.3383 156.562 19.7494 156.562 18.0942H150.778C150.43 18.0942 150.19 18.1853 150.058 18.3673C149.942 18.5329 149.884 18.8225 149.884 19.2363L150.033 22.6872C150.033 22.9686 149.884 23.1093 149.586 23.1093ZM156.538 31.6745C156.538 31.2442 156.513 30.8304 156.463 30.4331C152.921 30.9959 151.15 32.2455 151.15 34.182C151.15 34.9102 151.382 35.473 151.845 35.8702C152.325 36.2674 152.946 36.466 153.707 36.466C154.469 36.466 155.131 36.0936 155.694 35.3488C156.256 34.604 156.538 33.3793 156.538 31.6745ZM167.786 17.4984C168.001 17.0184 168.34 16.7784 168.803 16.7784C169.283 16.7784 169.639 16.8943 169.871 17.126V24.2513C169.871 25.1947 170.02 25.9064 170.318 26.3864C170.616 26.8664 171.021 27.1064 171.534 27.1064C173.09 27.1064 173.868 25.4926 173.868 22.2651C173.885 22.1658 174.009 22.1162 174.24 22.1162C174.538 22.1162 174.687 22.5548 174.687 23.432C174.687 24.8388 174.381 25.9643 173.769 26.8084C173.173 27.6525 172.329 28.0746 171.236 28.0746C169.565 28.0746 168.456 27.3381 167.91 25.865C167.595 26.5436 167.165 27.0815 166.619 27.4788C166.072 27.876 165.452 28.0746 164.757 28.0746C161.86 28.0746 160.412 26.1795 160.412 22.3893C160.412 20.4693 160.859 19.0542 161.753 18.1439C162.663 17.2336 163.863 16.7784 165.352 16.7784C166.495 16.7784 167.306 17.0184 167.786 17.4984ZM163.118 25.443C163.35 26.1712 163.615 26.6347 163.913 26.8333C164.21 27.0153 164.608 27.1064 165.104 27.1064C165.601 27.1064 166.139 26.8002 166.718 26.1878C167.314 25.5588 167.612 24.7478 167.612 23.7547V20.3535C167.612 19.5756 167.405 18.9466 166.991 18.4666C166.594 17.9867 166.139 17.7467 165.626 17.7467C165.129 17.7467 164.732 17.7963 164.434 17.8956C164.136 17.9949 163.855 18.2018 163.59 18.5163C163.044 19.1121 162.771 20.4031 162.771 22.3893C162.771 23.6968 162.886 24.7147 163.118 25.443Z" fill="white"/>
<path d="M110.095 24.2804C109.581 23.315 109.324 22.1784 109.324 20.8705C109.324 19.656 109.527 18.5739 109.931 17.6241C110.352 16.6588 110.803 15.888 111.286 15.3119C111.784 14.7203 112.384 14.2532 113.084 13.9106C113.801 13.5525 114.556 13.3735 115.35 13.3735C116.471 13.3735 117.366 13.6926 118.036 14.331L121.095 11.7619C121.033 11.217 121.002 10.6798 121.002 10.1504C121.002 6.69383 121.913 4.96554 123.734 4.96554C124.202 4.96554 124.567 5.12903 124.832 5.456C125.097 5.78298 125.245 6.20337 125.276 6.71719C125.291 7.46456 125.05 8.21193 124.552 8.9593C124.069 9.70667 123.353 10.5241 122.403 11.4116C122.886 14.6346 123.127 16.83 123.127 17.9978C123.127 19.15 122.979 20.2711 122.683 21.361C122.388 22.4353 121.936 23.4162 121.329 24.3037C120.722 25.1912 119.889 25.8841 118.83 26.3824C117.771 26.8806 116.541 27.1297 115.14 27.1297C113.131 27.1297 111.613 26.4446 110.585 25.0745C110.305 26.0554 110.165 27.1687 110.165 28.4143C110.165 29.6755 110.492 30.8043 111.146 31.8008C111.815 32.8129 112.672 33.3189 113.715 33.3189C113.793 33.3189 113.832 33.3967 113.832 33.5524C113.847 33.7081 113.808 33.786 113.715 33.786C112.485 33.786 111.473 33.2021 110.679 32.0344C109.885 30.8822 109.488 29.5976 109.488 28.1807C109.488 26.7638 109.69 25.4637 110.095 24.2804ZM118.433 14.7748C118.869 15.3664 119.087 16.036 119.087 16.7833C119.087 17.5151 118.97 18.1769 118.736 18.7685C118.518 19.3446 118.121 19.8584 117.545 20.31C116.985 20.7459 116.331 20.9639 115.583 20.9639C115.428 20.9639 115.303 20.925 115.21 20.8472C115.132 20.7693 115.077 20.6447 115.046 20.4735C115.716 20.4735 116.331 20.1621 116.891 19.5393C117.701 18.6673 118.106 17.6864 118.106 16.5965C118.106 16.145 118.02 15.709 117.849 15.2886C116.105 16.7833 114.634 18.2469 113.435 19.6794C112.236 21.1118 111.356 22.6689 110.796 24.3505C111.683 25.7829 113.077 26.4991 114.976 26.4991C116.144 26.4991 117.164 26.25 118.036 25.7518C118.923 25.2691 119.616 24.6074 120.114 23.7666C121.095 22.1161 121.586 20.1154 121.586 17.7643C121.586 17.1882 121.446 15.4365 121.165 12.5093L118.433 14.7748ZM117.499 14.7981C117 14.2687 116.315 14.004 115.443 14.004C114.571 14.004 113.785 14.2142 113.084 14.6346C111.792 15.4132 110.866 16.721 110.305 18.5583C110.056 19.3368 109.931 20.1387 109.931 20.9639C109.931 21.8826 110.079 22.7311 110.375 23.5097C111.45 20.816 113.824 17.9122 117.499 14.7981ZM122.193 8.9593C122.193 9.37969 122.232 9.94022 122.31 10.6409C123.851 9.13057 124.622 7.85381 124.622 6.81061C124.622 6.00096 124.326 5.59613 123.734 5.59613C122.707 5.59613 122.193 6.71719 122.193 8.9593Z" fill="white"/>
</svg>
