<svg width="1204" height="1848" viewBox="0 0 1204 1848" fill="none" xmlns="http://www.w3.org/2000/svg">
<path d="M541.375 272.688L485.617 305.636C463.352 318.792 443.364 335.465 426.427 355.007C408.932 375.194 394.935 398.163 385.014 422.965L383.861 425.847C375.984 445.539 365.69 464.176 353.215 481.329L344.239 493.672C336.12 504.835 329.606 517.082 324.889 530.055C319.008 546.227 316 563.303 316 580.511V595.945C316 608.296 315.027 620.627 313.091 632.825L311 646L301 678.5L283 642.5L281.084 634.563C278.101 622.206 267.044 613.5 254.332 613.5C248.899 613.5 243.588 615.108 239.067 618.122L227.03 626.147C212.163 636.058 201.305 650.933 196.396 668.114L192.612 681.358C186.977 701.079 186.828 721.963 192.179 741.763L196.211 756.681C201.306 775.531 211.478 792.622 225.618 806.088C238.977 818.812 255.409 827.852 273.307 832.327L294 837.5L309 839.5L324 835L328 873.25L324 911.5V1051.5V1103.71C324 1135.37 329.013 1166.83 338.851 1196.93L352.781 1239.53C356.238 1250.11 358 1261.17 358 1272.3C358 1291.41 363.193 1310.16 373.025 1326.54L394 1361.5L421.339 1411.86C428.393 1424.86 433.15 1438.97 435.398 1453.59L441.029 1490.19C442.922 1502.49 449.899 1513.43 460.257 1520.34C472.591 1528.56 480 1542.4 480 1557.23V1568.27C480 1580.82 483.634 1593.1 490.463 1603.63L512.864 1638.17C522.908 1653.65 530.805 1670.43 536.339 1688.03L541.46 1704.33C547.042 1722.09 547.555 1741.06 542.941 1759.09L539 1774.5L538.409 1776.81C532.284 1800.75 510.713 1817.5 486 1817.5H472.01C454.426 1817.5 437.918 1809.03 427.659 1794.75L370.411 1715.05C354.242 1692.54 323.724 1685.81 299.585 1699.43C278.508 1711.32 252.11 1707.83 234.836 1690.89L161.032 1618.47C159.017 1616.5 157.23 1614.3 155.703 1611.93L152.588 1607.08C145.163 1595.53 130.906 1590.41 117.829 1594.59C102.294 1599.57 85.6094 1591.36 80.0615 1576.02L61.2344 1523.97C57.7712 1514.4 56 1504.29 56 1494.11V1443.5L66.8029 1364.79C68.9042 1349.48 67.3379 1333.89 62.2329 1319.31L61.1506 1316.22C57.7484 1306.5 52.5149 1297.52 45.7331 1289.77L33.8081 1276.14C14.3783 1253.93 14.1266 1220.85 33.2163 1198.35C47.2699 1181.79 51.1963 1158.89 43.4634 1138.59L36.2015 1119.53C28.4148 1099.09 29.4104 1076.34 38.953 1056.66L47.8419 1038.33C52.9857 1027.72 52.9101 1015.32 47.6373 1004.77L43.8827 997.266C39.1317 987.763 40.7106 976.318 47.8568 968.458C53.0143 962.784 55.3723 955.106 54.288 947.516L48.9941 910.459C48.3322 905.825 48 901.151 48 896.471V869.227C48 865.51 49.2057 861.892 51.4361 858.918L74.5672 828.077C78.7905 822.446 72.828 814.859 66.3584 817.632C60.3475 820.208 54.474 813.729 57.6255 807.999L68.9675 787.377C69.6523 786.132 70.1565 784.796 70.4648 783.409L82.8561 727.647C87.6044 706.28 90 684.457 90 662.568V584.586C90 564.396 96.4763 544.738 108.477 528.501C118.635 514.759 124.869 498.516 126.516 481.506L126.675 479.856C128.83 457.592 138.362 436.686 153.757 420.459L177.028 395.93C194.823 377.173 208.61 354.988 217.548 330.728C227.069 304.884 242.086 281.414 261.561 261.939L262.942 260.558C271.629 251.871 279.493 242.4 286.436 232.264L359.854 125.073C370.577 109.417 383.188 95.1417 397.401 82.5686L404.537 76.2556C420.059 62.525 437.868 51.6231 457.157 44.0456C474.935 37.0612 493.924 32.9867 513 32C525.403 24.1347 541.328 24.5366 553.318 33.0177L554 33.5L589 32L590.883 30.924C595.891 28.0625 602.223 29.1415 606 33.5H613.5L620.585 31.9597C631.009 29.6936 641.848 30.225 652 33.5C678.428 33.5 704.782 37.7606 729.853 46.1177C748.55 52.35 766.43 60.8075 783.107 71.3082L812 89.5C847.505 117.115 876.04 152.671 895.313 193.312L912 228.5L942 312.5L958.069 379.699C962.009 396.176 964 413.059 964 430C964 436.069 955.757 437.905 953.182 432.408L914.217 349.233C912.754 346.108 910.686 343.305 908.133 340.984L846 284.5L835.793 276.775C794.399 245.451 743.91 228.5 692 228.5L653.85 233.655C630.036 236.873 606.677 242.949 584.31 251.735C569.469 257.566 555.103 264.575 541.375 272.688Z" fill="#050306"/>
<path d="M202.397 673.131L212.428 661.707C215.192 658.559 215.775 654.05 213.901 650.302C210.904 644.307 203.07 642.725 197.981 647.087L195.624 649.108C194.549 650.03 193.635 651.124 192.92 652.346L188.068 660.642C181.802 671.354 178.5 683.541 178.5 695.95V704.331C178.5 711.093 179.18 717.838 180.53 724.464L184 741.5L186.603 760.761C188.178 772.414 192.548 783.513 199.34 793.111C207.598 804.779 219.103 813.762 232.425 818.943L265.161 831.674C265.713 831.888 266.307 831.976 266.898 831.931L269.039 831.766C272.181 831.525 273.181 827.406 270.5 825.75L234.793 806.093C225.886 801.19 219.003 793.292 215.361 783.799C214.456 781.438 213.343 779.16 212.038 776.994L209.892 773.434C205.322 765.853 201.895 757.64 199.719 749.059L194 726.5L192.082 716.333C190.074 705.69 191.309 694.69 195.627 684.757L196.947 681.722C198.307 678.593 200.146 675.695 202.397 673.131Z" fill="#050306"/>
<path d="M284.5 642L294 661C296.771 666.357 304.648 665.74 306.5 660L311.116 645.69C311.371 644.901 311.5 644.078 311.5 643.25V666V710.5L313.435 796.104C313.478 798.031 313.695 799.95 314.081 801.838L320.796 834.622C321.418 837.658 319.099 840.5 316 840.5H308H304.692C298.623 840.5 292.612 839.311 287 837L274 833L260 827L242 816.5L238.461 814.038C233.176 810.362 228.391 806.014 224.226 801.105C219.108 795.074 214.986 788.264 212.014 780.934L209 773.5L199.5 749L194.541 732.397C190.24 717.999 189.37 702.794 192 688L198.636 663.55C200.537 656.549 203.371 649.834 207.061 643.589L209.087 640.16C212.667 634.102 217.303 628.736 222.777 624.315C225.917 621.778 229.31 619.572 232.902 617.73L240.671 613.745C244.831 611.612 249.438 610.5 254.112 610.5H256.372C262.245 610.5 267.908 612.689 272.254 616.64C275.044 619.177 277.186 622.344 278.501 625.877L284.5 642Z" fill="#D6AE9C"/>
<path d="M226.711 626.692L220.012 624.758L219.357 635.237L218.39 650.707L219.124 651.476C222.676 655.19 225.469 659.562 227.347 664.345L228.341 666.876C229.798 670.586 230.424 674.57 230.176 678.548C230.053 680.504 229.721 682.442 229.183 684.327L227.317 690.871C226.11 695.101 224.383 699.166 222.174 702.971C218.808 708.767 216.57 715.149 215.579 721.778L213.703 734.324C213.092 738.407 211.542 742.292 209.174 745.673L207.582 747.946C207.014 748.758 206.319 749.474 205.526 750.067L200.86 753.556C198.474 755.34 195.05 754.458 193.823 751.743C192.909 749.721 193.548 747.335 195.35 746.04L200.501 742.336C202.639 740.799 204.233 738.621 205.052 736.118L207.181 729.61C207.809 727.688 208.191 725.694 208.318 723.675L208.585 719.397C208.694 717.658 208.304 715.924 207.462 714.399C206.272 712.242 206.001 709.697 206.709 707.338L209.078 699.446C209.711 697.338 210.1 695.166 210.237 692.97L211.029 680.306L211.542 672.098C211.882 666.657 211.025 661.208 209.033 656.134L206.556 651.559C205.24 649.127 204.633 646.374 204.806 643.615C205.055 639.617 206.92 635.892 209.972 633.297L220.012 624.758L224.699 619.595C227.148 616.898 231.629 618.229 232.208 621.826C232.715 624.973 229.774 627.577 226.711 626.692Z" fill="#050306"/>
<path d="M672.11 1448.36L677.56 1474.4C677.844 1475.75 677.626 1477.16 676.948 1478.37C674.305 1483.07 667.221 1481.83 666.335 1476.51L661.227 1445.86C661.076 1444.95 661 1444.04 661 1443.12V1436.14C661 1426.43 662.401 1416.77 665.16 1407.46L669 1394.5L678 1360.5L688 1309.5L706.358 1217.71C707.185 1213.58 711.718 1211.36 715.49 1213.24C718.135 1214.57 719.528 1217.53 718.86 1220.41L694 1327.5L678 1385.5L671.798 1418.58C669.951 1428.43 670.057 1438.55 672.11 1448.36Z" fill="#D9D9D9"/>
<path d="M970.965 645.856L987.336 691.993C989.076 696.895 989.372 702.192 988.19 707.257L983.335 728.065C978.566 748.503 980.343 769.924 988.415 789.297L998.308 813.038C1003.39 825.225 1006 838.297 1006 851.5V861.492C1006 872.075 1004.07 882.569 1000.3 892.459C993.614 910.013 992.789 929.261 997.949 947.323L998.457 949.101C1003.38 966.329 1003.2 984.616 997.926 1001.74L991.887 1021.37C990.636 1025.43 990 1029.66 990 1033.92V1039.57C990 1052.92 997.828 1065.02 1010 1070.5L1017.24 1073.76C1025.01 1077.25 1030 1084.98 1030 1093.49V1096.24C1030 1099.63 1031.21 1102.92 1033.43 1105.5L1036.48 1109.06C1039.59 1112.69 1039.39 1118.11 1036 1121.5L1033.89 1123.61C1031.7 1125.8 1028.18 1125.94 1025.82 1123.92L1024.03 1122.39C1020.88 1119.68 1016 1121.92 1016 1126.08C1016 1127.01 1016.26 1127.91 1016.76 1128.7L1023 1138.5C1027.57 1145.68 1030 1154.02 1030 1162.54V1197.84C1030 1226.46 1037.4 1254.59 1051.49 1279.51L1059.95 1294.49C1074.4 1320.06 1082 1348.94 1082 1378.31V1402.18C1082 1417.44 1086.15 1432.41 1094 1445.5L1094.86 1446.94C1102.15 1459.08 1106 1472.98 1106 1487.15C1106 1497.93 1108.23 1508.6 1112.55 1518.48L1113 1519.5C1117.62 1530.05 1120 1541.45 1120 1552.96V1562.67C1120 1568.51 1118.97 1574.3 1116.95 1579.78L1114.19 1587.27C1109.2 1600.82 1112.54 1616.04 1122.75 1626.25C1127.49 1630.99 1130.86 1636.94 1132.49 1643.45L1144.24 1690.46C1150.69 1716.26 1161.94 1740.61 1177.39 1762.25L1179 1764.5L1191.5 1782C1198.68 1792.05 1197.39 1805.84 1188.49 1814.39L1179 1823.5L1174.26 1828.05C1163.5 1838.38 1146.12 1836.95 1137.2 1825L1120.4 1802.5L1096.06 1769.91C1071.15 1736.54 1019.87 1740.91 1000.96 1778.01C995.403 1788.9 981.07 1791.64 971.889 1783.56L965 1777.5L951.525 1765.64C944.658 1759.6 942.479 1749.81 946.134 1741.43L953.589 1724.33C964.519 1699.25 951.42 1670.22 925.386 1661.82C916.659 1659 907.293 1658.84 898.476 1661.36L895.819 1662.12C866.194 1670.59 835.36 1653.23 827.229 1623.51L790.052 1487.62C786.031 1472.92 780.299 1458.75 772.973 1445.39L750 1403.5C757.114 1390.46 754.786 1374.29 744.28 1363.78L694 1313.5C687.761 1308.51 684.464 1300.71 685.234 1292.75L690.765 1235.59C692.202 1220.74 688.003 1205.9 679 1194C673.588 1184.08 674.907 1171.84 682.309 1163.3L683 1162.5L690.187 1157.31C697.346 1152.14 705.311 1148.19 713.76 1145.62C720.556 1143.55 727.047 1140.58 733.062 1136.8L742.997 1130.56C753.632 1123.87 763.483 1116.02 772.366 1107.13L781 1098.5L845 1008.5L899.864 949.67C918.44 929.751 932.922 906.376 942.485 880.873C954.636 848.471 958.507 813.548 953.746 779.271L951 759.5L939.184 653.157C939.062 652.055 939.051 650.944 939.153 649.839C940.767 632.318 965.081 629.274 970.965 645.856Z" fill="#050306"/>
<path d="M324.277 1084.79L325 1072.5L324 988.5V934L324.5 904.75L324.897 881.5L325 848.5L325.753 856.999C326.653 867.145 328.479 877.187 331.21 887L337.72 899.056C347.216 916.641 354.931 935.132 360.751 954.252L366 971.5L374.251 991.243C387.287 1022.44 406.385 1050.73 430.438 1074.49C460.35 1104.04 497.092 1125.75 537.405 1137.69L572.823 1148.19C580.248 1150.39 587.907 1151.71 595.641 1152.11L676.69 1156.38C688.321 1156.99 697.111 1167.15 696.043 1178.75L694.086 1200L688.317 1277.74C687.47 1289.17 690.924 1300.49 698 1309.5L754 1372.5C769.902 1396.35 781.967 1422.55 789.757 1450.14L795.279 1469.7C799.752 1485.54 802.914 1501.72 804.732 1518.08L808 1547.5C812.269 1566.4 805.178 1586.07 789.825 1597.9L760.773 1620.28C756.265 1623.75 751.487 1626.86 746.486 1629.58L731.903 1637.5C700.288 1654.66 665.556 1665.31 629.756 1668.84L587.462 1673C570.75 1674.64 553.892 1672.1 538.406 1665.61C513.802 1655.29 494.267 1635.67 484.047 1611.03L370.075 1336.21C362.756 1318.56 358.804 1299.7 358.422 1280.59C358.142 1266.6 355.944 1252.71 351.891 1239.31L340 1200L337.977 1193.66C326.755 1158.52 322.111 1121.61 324.277 1084.79Z" fill="#D6AE9C"/>
<path d="M597.372 1132.37L688.477 1139.99C695.077 1140.55 699.936 1146.41 699.25 1153L697 1165L696.25 1193.25L694.5 1221.5L692.5 1246L688.5 1271.5L644.5 1253L617.526 1242.17C589.994 1231.12 564.254 1216.04 541.146 1197.44L499 1163.5L475.764 1145.99C442.938 1121.26 415.544 1090.05 395.282 1054.29L392 1048.5L365.5 1002L361.455 993.21C353.738 976.44 347.599 958.988 343.116 941.08L334.492 906.628C334.305 905.879 334.21 905.109 334.21 904.337C334.21 894.539 347.295 891.232 351.951 899.853L354.487 904.549C354.828 905.181 355.105 905.846 355.315 906.534L369 951.5L377.251 971.243C390.287 1002.44 409.385 1030.73 433.438 1054.49C463.35 1084.04 500.092 1105.75 540.405 1117.69L577.021 1128.54C583.656 1130.51 590.475 1131.79 597.372 1132.37Z" fill="#CC9E87"/>
<path d="M596.659 243.643L612.217 239.087C639.599 231.07 667.985 227 696.516 227H725.501C756.197 227 786.588 233.078 814.922 244.884C838.153 254.564 859.699 267.987 878.639 284.559C901.946 304.953 921.008 329.828 934.616 357.648L936.292 361.075C951.275 391.707 959.89 425.059 961.616 459.115L968.951 603.804C969.643 617.465 967.614 631.128 962.981 643.998L958.311 656.97C954.203 668.382 953.69 680.779 956.844 692.491C958.274 697.804 958.959 703.291 958.877 708.794L958 768V822.046C958 861.926 943.214 900.39 916.5 930L838.718 1035.68C829.254 1048.54 818.78 1060.62 807.394 1071.81L761.259 1117.16C745.3 1132.84 725.951 1144.65 704.704 1151.68C686.092 1157.83 666.432 1160.17 646.894 1158.57L624.157 1156.7C571.023 1152.34 520.541 1131.65 479.636 1097.46L437.932 1062.6C418.39 1046.27 401.008 1027.51 386.205 1006.79L379.254 997.056C355.663 964.029 339.02 926.559 330.33 886.913L318.456 832.738C313.832 811.641 311.5 790.107 311.5 768.509V671V600.03C311.5 555.566 321.384 511.659 340.436 471.484L343.391 465.251C352.769 445.477 364.282 426.787 377.726 409.517L399.097 382.063C414.637 362.101 432.639 344.185 452.674 328.741L497.805 293.952C527.343 271.184 560.867 254.122 596.659 243.643Z" fill="#D6AE9C"/>
<path d="M508.722 24.3486L501.672 27.5093C498.451 28.9529 497.674 33.1744 500.17 35.6699C501.585 37.0854 503.705 37.5287 505.569 36.7992L514 33.5L524.25 28.5518C527.047 27.2014 530.113 26.5 533.22 26.5H534.1C537.932 26.5 541.665 27.7265 544.75 30C547.835 32.2735 551.568 33.5 555.4 33.5H561H574H590.448C591.75 33.5 592.988 32.9309 593.835 31.942L594.986 30.5997C596.606 28.7098 599.646 29.1751 600.627 31.463C601.157 32.6988 602.372 33.5 603.716 33.5H611.977C612.99 33.5 614.001 33.4031 614.996 33.2105L624.961 31.2818C627.647 30.7618 630.378 30.5 633.114 30.5H634.705C641.442 30.5 648.051 32.3308 653.828 35.7967C656.268 37.2607 658.868 38.4397 661.577 39.3104L663.431 39.9063C668.778 41.6249 674.36 42.5 679.976 42.5H682.703C688.546 42.5 694.366 43.2166 700.035 44.6337L701.5 45L723 52L738.999 59.7833C740.645 60.584 742.451 61 744.281 61C749.956 61 754.864 57.049 756.077 51.5057L757.086 46.8944C757.361 45.6351 757.5 44.3499 757.5 43.0608V33.4642C757.5 29.2685 754.916 25.5062 751 24C744.697 20.6828 737.963 18.2598 730.992 16.8007L726.474 15.855C722.169 14.9541 717.783 14.5 713.386 14.5C710.133 14.5 706.886 14.2516 703.671 13.7571L697.064 12.7406C691.696 11.9147 686.273 11.5 680.841 11.5C674.626 11.5 668.422 10.9568 662.301 9.87661L654.5 8.5L629 5H625.1C619.063 5 613.055 4.15857 607.25 2.5C601.445 0.841427 595.437 0 589.4 0H587.5H585.09C581.414 0 577.788 0.855929 574.5 2.5C571.212 4.14407 567.586 5 563.91 5H556.5H554.991C551.529 5 548.263 6.60804 546.152 9.35218C545.067 10.7635 543.659 11.8944 542.046 12.6501L532.851 16.9606C529.956 18.3174 526.945 19.4093 523.853 20.2228L510.324 23.7831C509.776 23.9275 509.24 24.1166 508.722 24.3486Z" fill="#CFB115"/>
<path d="M781 956L799.5 967.5L776.5 978.5L772.928 988.144C771.978 990.71 770.811 993.19 769.44 995.558L769.339 995.733C767.124 999.558 764.379 1003.05 761.184 1006.11L760.237 1007.01C756.449 1010.64 751.988 1013.48 747.107 1015.39C744.377 1016.46 741.539 1017.23 738.642 1017.68L729.798 1019.05C723.609 1020.02 717.354 1020.5 711.09 1020.5H691.5L683.286 1019.71C671.463 1018.57 659.8 1016.16 648.5 1012.5L629 1003.5L604 987.5L601.627 985.904C584.918 974.663 569.383 961.769 555.258 947.415L545.5 937.5L547 934H565.5H593.5H615L642 931.5H659.993C664.324 931.5 668.65 931.836 672.929 932.505C679.289 933.498 685.512 935.221 691.477 937.639L701 941.5L705.726 942.932C713.465 945.277 721.65 945.755 729.609 944.327C734.51 943.447 739.513 943.287 744.461 943.853L745.932 944.021C751.616 944.67 757.181 946.113 762.465 948.306L781 956Z" fill="#AC6963"/>
<path d="M303 726.5L287.466 644.262C286.58 639.57 288.626 634.808 292.64 632.221C299.948 627.511 309.661 632.107 310.654 640.745L315.25 680.75L322 739.5V771V802.5V846.987C322 851.965 317.965 856 312.987 856C307.645 856 303.475 851.38 304.021 846.065L308.097 806.418C308.365 803.811 308.405 801.185 308.216 798.571L303 726.5Z" fill="#050306"/>
<path d="M816 543V536.826C816 533.981 816.662 531.175 817.935 528.63C821.039 522.422 827.385 518.5 834.326 518.5H886.182C895.343 518.5 904.453 519.865 913.211 522.551C929.107 527.426 943.389 536.509 954.545 548.839L957.812 552.45C963.127 558.324 966.394 565.764 967.122 573.653L969 594L954.269 580.977C941.344 569.551 925.498 561.942 908.5 559L862.5 554.5H836H827.5C821.149 554.5 816 549.351 816 543Z" fill="#050306"/>
<path d="M665.564 543.418L669.111 544.914C669.771 545.192 670.5 544.708 670.5 543.993V523L669 507.5C667.479 501.11 662.35 496.208 655.898 494.976L611.5 486.5L600.88 484.997C572.808 481.025 544.281 481.577 516.384 486.632C494.877 490.529 473.934 497.068 454.031 506.101L419 522L395.5 555.5L436.641 537.057C457.448 527.73 479.441 521.317 502 518C516.284 516.007 530.752 515.702 545.107 517.091L554.5 518L595 523L609.735 526.049C628.866 530.007 647.564 535.824 665.564 543.418Z" fill="#050306"/>
<path d="M674 855L672.681 854.68C662.822 852.29 653.994 846.793 647.5 839H651.5H659L662.085 839.411C670.015 840.469 677.846 842.171 685.5 844.5L693.75 848.198C697.895 850.057 701.756 852.496 705.214 855.442L706.003 856.113C710.938 860.317 714.867 865.576 717.5 871.5C714.871 871.5 712.281 870.873 709.943 869.671L696 862.5C689.023 859.178 681.687 856.671 674.136 855.03L674 855Z" fill="#CC9E87" fill-opacity="0.3"/>
<path d="M792.5 870L797.231 868.423C799.78 867.573 801.5 865.187 801.5 862.5L795.281 862.099C789.286 861.712 783.345 863.447 778.5 867L767 877.5L786 872.5L792.5 870Z" fill="#CC9E87" fill-opacity="0.3"/>
<path d="M769 682.5L761 637.5L791.5 751C799.792 773.885 804.804 797.828 806.388 822.117L807 831.5L800.547 796.364C798.86 787.181 795.706 778.33 791.207 770.149C788.409 765.062 786.128 759.709 784.396 754.168L777 730.5L769 682.5Z" fill="#CC9E87" fill-opacity="0.3"/>
<path d="M724.519 784.517L730 771.5L731.861 767.778C736.556 758.388 739 748.035 739 737.537C739 733.52 738.642 729.512 737.93 725.558L730 681.5L722 642.5L718.461 626.412C717.188 620.629 717.835 614.588 720.302 609.204L721.215 607.213C721.735 606.077 722.422 605.025 723.252 604.091C727.191 599.66 733.685 598.573 738.852 601.479L739.271 601.715C743.428 604.053 746 608.451 746 613.22V617.5L748.5 642.5L755 681.5L764 727.5L767.986 744.771C769.321 750.557 771.522 756.109 774.514 761.238C778.465 768.012 781.027 775.504 782.05 783.278L783 790.5V797.396C783 806.303 778.921 814.72 771.93 820.239C766.794 824.294 760.441 826.5 753.896 826.5H749.336C742.675 826.5 736.244 824.068 731.25 819.662C725.369 814.472 722 807.007 722 799.164V796.992C722 792.707 722.857 788.466 724.519 784.517Z" fill="#E1B5A1" fill-opacity="0.2"/>
<path d="M673.226 771H665.5L674.974 763.736C678.634 760.93 681.82 757.555 684.41 753.739C688.088 748.318 690.482 742.129 691.408 735.644L694.5 714L703 663.5V683.5V724V739.813C703 745.184 701.646 750.469 699.063 755.179L698.639 755.952C695.938 760.878 691.864 764.912 686.912 767.565C682.703 769.82 678.001 771 673.226 771Z" fill="#E1B5A1" fill-opacity="0.3"/>
<path d="M622.016 834.308L622.676 835.571C625.513 840.992 629.668 845.612 634.759 849.006L627.213 843.975C623.789 841.693 620.97 838.613 619 835L616.969 831.446C615.667 829.167 614.779 826.675 614.348 824.085C613.79 820.74 614.007 817.311 614.981 814.062L615.284 813.053C616.09 810.368 617.313 807.826 618.909 805.521L622.235 800.717C624.407 797.579 626.858 794.642 629.557 791.943L629.824 791.676C634.582 786.918 640.02 782.895 645.962 779.739L653 776L642 784.5L640.662 785.624C633.272 791.831 626.965 799.224 622 807.5L621.473 808.62C619.202 813.445 618.312 818.806 618.901 824.107C619.297 827.671 620.353 831.13 622.016 834.308Z" fill="#CC9E87" fill-opacity="0.3"/>
<path d="M789.682 876H781C791.09 877.953 801.536 876.762 810.927 872.588L814.5 871C819.879 868.469 823.836 863.654 825.278 857.886L825.779 855.884C826.258 853.969 826.5 852.002 826.5 850.027V843.939C826.5 841.654 826.229 839.378 825.693 837.157C823.963 829.991 819.561 823.757 813.386 819.73L811.5 818.5L815.752 824.346C818.227 827.75 820.025 831.599 821.046 835.682L821.346 836.882C822.432 841.23 822.451 845.775 821.399 850.131C820.159 855.27 817.477 859.948 813.669 863.615L808.822 868.283C806.95 870.085 804.833 871.614 802.533 872.825C798.571 874.91 794.16 876 789.682 876Z" fill="#CC9E87" fill-opacity="0.3"/>
</svg>
