<svg width="45" height="48" viewBox="0 0 45 48" fill="none" xmlns="http://www.w3.org/2000/svg">
<path d="M19.764 9.952H27.036V10.816L24.516 11.644V34H22.536L6.048 14.236V32.236L9.036 33.136V34H1.62V33.136L4.5 32.236V11.14L1.368 10.78V9.952H7.272L22.536 28.42V11.644L19.764 10.816V9.952Z" fill="black"/>
<path d="M37.4978 14.257C36.2611 13.6586 34.963 13.2827 33.6037 13.1293C32.2443 12.9759 31.0074 13.2349 29.8932 13.9062C28.7816 14.5537 28.1397 15.6405 27.9674 17.1669C27.8006 18.6455 28.3048 19.8496 29.48 20.7792C30.1232 21.2865 30.6486 21.6598 31.0564 21.899C31.488 22.1409 32.1036 22.464 32.9034 22.8682C33.7269 23.2751 34.2857 23.5676 34.5796 23.7457C34.8761 23.8999 35.3064 24.1537 35.8703 24.5072C36.4608 24.8395 36.887 25.1291 37.149 25.376C37.4348 25.6256 37.7708 25.9654 38.157 26.3954C38.5433 26.8255 38.8222 27.2434 38.9937 27.6492C39.4081 28.6862 39.5507 29.777 39.4215 30.9218C39.1928 32.9489 38.183 34.5135 36.3922 35.6157C34.6013 36.7179 32.3942 37.121 29.7709 36.825C27.7676 36.599 25.9331 36.0539 24.2675 35.1897C23.4439 34.7828 22.7888 34.2741 22.3022 33.6637C21.8156 33.0533 21.6126 32.3904 21.6933 31.6749C21.8252 30.5063 22.7619 29.8029 24.5036 29.5647C24.6045 31.0252 24.9748 32.2384 25.6146 33.2042C26.2544 34.17 26.9516 34.8404 27.7063 35.2154C28.4849 35.593 29.4465 35.8465 30.5913 35.9756C31.7598 36.1075 32.8986 35.8616 34.0075 35.238C35.1191 34.5905 35.7718 33.4082 35.9655 31.6911C36.1135 30.3795 35.6384 29.239 34.5401 28.2698C33.6588 27.5182 32.5469 26.7769 31.2044 26.0458C29.8858 25.3173 28.9987 24.8308 28.5433 24.5862C28.0905 24.3177 27.5068 23.9258 26.792 23.4105C26.1039 22.8739 25.6051 22.3708 25.2958 21.9012C24.4922 20.6754 24.1724 19.3351 24.3366 17.8803C24.5895 15.6385 25.5795 14.0354 27.3065 13.0709C29.0335 12.1065 31.3041 11.783 34.1182 12.1005C35.8115 12.2916 37.7575 12.7043 39.9562 13.3388L39.3629 18.5975L38.2539 18.4724L37.4978 14.257Z" fill="black"/>
</svg>
