<svg width="398" height="546" viewBox="0 0 398 546" fill="none" xmlns="http://www.w3.org/2000/svg">
    <path d="M26.8526 394.023L21.3173 397.93C15.3007 402.177 10.2888 407.692 6.63499 414.087C2.28701 421.695 0 430.307 0 439.071V546H397.454V439.725C397.454 430.467 395.603 421.302 392.01 412.769L390.305 408.719C387 400.87 381.814 393.955 375.204 388.584C365.955 381.07 354.401 376.968 342.485 376.968H278.675H85.0831C75.1093 376.968 65.1841 378.358 55.5941 381.098L51.2729 382.332C42.5337 384.829 34.2779 388.782 26.8526 394.023Z" fill="#1A1E21"/>
    <path d="M155.327 343.466L137.053 383.059H280.197L260.401 364.785V309.964L242.127 323.669L227.455 333.451C225.063 335.046 222.484 336.341 219.777 337.308C208.97 341.167 196.96 339.51 187.602 332.869L155.327 309.964V343.466Z" fill="#1A1E21"/>
    <path d="M221.073 342.136L215.926 344.195C212.147 345.706 208.115 346.483 204.045 346.483C196.518 346.483 189.232 343.829 183.469 338.988L170.124 327.778L156.067 314.943C151.787 311.035 147.795 306.822 144.125 302.336C137.145 293.805 131.376 284.351 126.981 274.243L124.698 268.992L115.95 243.718C111.127 229.787 108.666 215.149 108.666 200.408L104.212 175.468C100.721 168.487 99.2872 160.657 100.077 152.891L104.212 112.228L115.791 98.8679L116.055 98.5776C127.727 85.738 140.623 74.0659 154.558 63.7266L161.217 58.7863L164.725 56.2016C173.439 49.7804 183.98 46.3165 194.804 46.3165C197.94 46.3165 201.068 46.6072 204.149 47.185L210.594 48.3934C222.15 50.5601 233.329 54.3957 243.78 59.7798L244.126 59.958C252.952 64.5046 261.199 70.0953 268.691 76.6098L277.899 84.6166L291.259 145.184L298.385 188.829V233.364L290.607 260.588C287.493 271.485 282.92 281.91 277.01 291.58C269.93 303.165 261.018 313.527 250.621 322.26L244.052 327.778L234.085 334.977C230.057 337.886 225.687 340.29 221.073 342.136Z" fill="#E5E1DE" stroke="black" stroke-width="0.890701"/>
    <path d="M135.549 93.2427L152.184 75.942C163.424 64.2529 178.94 57.6468 195.156 57.6468C207.822 57.6468 220.158 61.681 230.377 69.1644L236.147 73.3896C253.132 85.8281 264.643 104.358 268.269 125.096L277.656 178.786C279.491 189.281 280.413 199.915 280.413 210.569C280.413 231.567 276.83 252.411 269.817 272.203L261.746 294.981C257.203 307.803 254.882 321.307 254.882 334.91V367.014C254.882 374.882 257.7 382.49 262.827 388.458C269.079 395.737 278.197 399.925 287.793 399.925H337.841C344.581 399.925 350.046 394.461 350.046 387.72C350.046 385.116 349.213 382.581 347.669 380.484L341.871 372.609C335.22 363.575 332.461 352.255 334.209 341.175L335.862 330.695C337.556 319.961 336.629 308.977 333.16 298.68L327.915 283.109C324.684 273.516 324.264 263.198 326.707 253.374L326.857 252.773C329.837 240.787 328.4 228.129 322.811 217.116L313.204 198.189C312.042 195.9 312.009 193.2 313.115 190.883C314.418 188.151 314.126 184.925 312.352 182.473L308.012 176.473C304.753 171.968 303.744 166.217 305.274 160.872C306.686 155.94 305.941 150.641 303.223 146.29L299.42 140.202C296.606 135.697 295.114 130.492 295.114 125.18C295.114 120.465 293.938 115.825 291.693 111.679L275.991 82.6829C273.816 78.6659 272.676 74.1699 272.676 69.6017C272.676 61.9771 269.508 54.6955 263.928 49.4991L241.729 28.8234L224.579 13.4213C218.084 7.58844 210.112 3.65166 201.533 2.04064C194.383 0.698049 187.02 1.01037 180.009 2.95365L174.418 4.50366L156.689 8.63163C150.49 10.075 144.542 12.4367 139.041 15.6386C124.528 24.0867 113.926 37.9106 109.529 54.1179L107.106 63.0512C101.979 76.1842 98.8964 90.0262 97.9668 104.094L95.186 146.181C94.8807 150.802 94.187 155.389 93.1122 159.893L92.9651 160.51C91.5657 166.375 90.8587 172.384 90.8587 178.413C90.8587 183.758 90.3034 189.087 89.2016 194.317L80.8007 234.19L78.0251 254.225C77.3033 259.435 77.5946 264.735 78.8828 269.834C80.1499 274.849 80.4526 280.06 79.7749 285.188L73.4493 333.056C73.193 334.996 72.7435 336.905 72.1076 338.756L71.5931 340.254C69.5522 346.194 69.7946 352.681 72.2732 358.452L74.0789 362.656C75.8875 366.867 75.7383 371.663 73.6715 375.754C68.269 386.446 76.5297 398.961 88.4847 398.196L112.833 396.639C124.412 395.898 134.477 388.426 138.536 377.556L143.964 363.023C146.195 357.048 147.338 350.721 147.338 344.342V336.603C147.338 321.964 143.999 307.519 137.574 294.365L134.161 287.376C128.028 274.82 123.961 261.356 122.118 247.504L116.391 204.466L111.504 185.978C108.595 174.969 107.631 163.536 108.656 152.196C110.658 130.059 120.143 109.265 135.549 93.2427Z" fill="#1A1E21"/>
    </svg>
    