<svg width="32" height="32" viewBox="0 0 32 32" fill="none" xmlns="http://www.w3.org/2000/svg">
<path d="M2 2H30V30H2V2Z" fill="#F5DE19"/>
<path d="M20.8091 23.875C21.0476 24.3596 21.4183 24.7669 21.8783 25.05C22.3383 25.3331 22.869 25.4804 23.4091 25.475C24.4991 25.475 25.1961 24.93 25.1961 24.175C25.1961 23.275 24.4801 22.953 23.2801 22.428L22.6221 22.146C20.7221 21.337 19.4621 20.324 19.4621 18.182C19.4621 16.209 20.9621 14.706 23.3151 14.706C24.0768 14.651 24.8378 14.8215 25.5033 15.1962C26.1687 15.5709 26.7091 16.1332 27.0571 16.813L25.0001 18.128C24.8661 17.7909 24.6328 17.5025 24.3312 17.3011C24.0295 17.0996 23.6738 16.9946 23.3111 17C23.1528 16.9842 22.993 17.0015 22.8418 17.0508C22.6907 17.1001 22.5514 17.1804 22.433 17.2865C22.3145 17.3926 22.2195 17.5223 22.1539 17.6671C22.0883 17.812 22.0536 17.969 22.0521 18.128C22.0521 18.917 22.5411 19.237 23.6701 19.728L24.3281 20.01C26.5641 20.969 27.8281 21.946 27.8281 24.143C27.8281 26.512 25.9671 27.81 23.4681 27.81C22.4944 27.872 21.5235 27.651 20.6727 27.1735C19.8218 26.696 19.1274 25.9824 18.6731 25.119L20.8091 23.875ZM11.5141 24.103C11.9271 24.836 12.3031 25.456 13.2071 25.456C14.0711 25.456 14.6171 25.118 14.6171 23.803V14.856H17.2481V23.838C17.2481 26.562 15.6481 27.802 13.3191 27.802C12.4958 27.847 11.6782 27.6418 10.9738 27.2135C10.2693 26.7851 9.71093 26.1536 9.37207 25.402L11.5141 24.103Z" fill="black"/>
</svg>
