<svg width="32" height="32" viewBox="0 0 32 32" fill="none" xmlns="http://www.w3.org/2000/svg">
    <path fill-rule="evenodd" clip-rule="evenodd" d="M22.708 3.29199C22.8011 3.38488 22.875 3.49523 22.9254 3.61672C22.9758 3.73821 23.0017 3.86845 23.0017 3.99999C23.0017 4.13152 22.9758 4.26176 22.9254 4.38325C22.875 4.50474 22.8011 4.6151 22.708 4.70799L11.414 16L22.708 27.292C22.8957 27.4798 23.0012 27.7344 23.0012 28C23.0012 28.2655 22.8957 28.5202 22.708 28.708C22.5202 28.8958 22.2655 29.0012 22 29.0012C21.7344 29.0012 21.4797 28.8958 21.292 28.708L9.29196 16.708C9.19883 16.6151 9.12494 16.5047 9.07453 16.3833C9.02412 16.2618 8.99817 16.1315 8.99817 16C8.99817 15.8685 9.02412 15.7382 9.07453 15.6167C9.12494 15.4952 9.19883 15.3849 9.29196 15.292L21.292 3.29199C21.3848 3.19886 21.4952 3.12497 21.6167 3.07456C21.7382 3.02415 21.8684 2.9982 22 2.9982C22.1315 2.9982 22.2617 3.02415 22.3832 3.07456C22.5047 3.12497 22.6151 3.19886 22.708 3.29199Z" fill="white"/>
    </svg>
    