<svg width="46" height="24" viewBox="0 0 46 24" fill="none" xmlns="http://www.w3.org/2000/svg">
<path d="M0 2.3C0 1.02975 1.02975 0 2.3 0H43.7C44.9703 0 46 1.02975 46 2.3V2.3C46 3.57025 44.9703 4.6 43.7 4.6H2.3C1.02975 4.6 0 3.57025 0 2.3V2.3Z" fill="black"/>
<path d="M0 11.9599C0 10.6897 1.02975 9.65991 2.3 9.65991H43.7C44.9703 9.65991 46 10.6897 46 11.9599V11.9599C46 13.2302 44.9703 14.2599 43.7 14.2599H2.3C1.02975 14.2599 0 13.2302 0 11.9599V11.9599Z" fill="black"/>
<path d="M0 21.6201C0 20.3498 1.02975 19.3201 2.3 19.3201H43.7C44.9703 19.3201 46 20.3498 46 21.6201V21.6201C46 22.8903 44.9703 23.9201 43.7 23.9201H2.3C1.02975 23.9201 0 22.8903 0 21.6201V21.6201Z" fill="black"/>
</svg>