<svg width="70" height="83" viewBox="0 0 70 83" fill="none" xmlns="http://www.w3.org/2000/svg">
<path d="M3.3056 2.23387C4.79367 1.00014 7.42877 1.72332 9.19125 3.84915L66.6337 73.1338C68.3962 75.2596 68.6187 77.9831 67.1306 79.2168V79.2168C65.6425 80.4505 63.0074 79.7274 61.2449 77.6015L3.80244 8.3169C2.03997 6.19107 1.81752 3.46761 3.3056 2.23387V2.23387Z" fill="black"/>
<path d="M2.6824 80.2483C1.20095 79.0066 1.43798 76.2844 3.21182 74.168L61.0245 5.19195C62.7983 3.07559 65.4373 2.36653 66.9187 3.60822V3.60822C68.4002 4.8499 68.1631 7.57214 66.3893 9.68849L8.57662 78.6645C6.80278 80.7809 4.16385 81.49 2.6824 80.2483V80.2483Z" fill="black"/>
</svg>