<svg width="331" height="229" viewBox="0 0 331 229" fill="none" xmlns="http://www.w3.org/2000/svg">
<path d="M69.6665 40.8333C69.6665 35.9548 73.6213 32 78.4998 32V32C83.3784 32 87.3332 35.9548 87.3332 40.8333V76.1667C87.3332 81.0452 83.3784 85 78.4998 85V85C73.6213 85 69.6665 81.0452 69.6665 76.1667V40.8333Z" fill="#D7D7D7"/>
<path d="M52 58.5C52 53.6214 55.9548 49.6666 60.8333 49.6666H96.1667C101.045 49.6666 105 53.6214 105 58.5V58.5C105 63.3785 101.045 67.3333 96.1667 67.3333H60.8333C55.9548 67.3333 52 63.3785 52 58.5V58.5Z" fill="#D7D7D7"/>
<path d="M204.595 28.9378H128.443L118.28 18.0487C115.587 15.1631 112.587 12.5793 109.335 10.343C101.884 5.22088 93.2103 2.03074 84.2197 1.07429C77.5746 0.367372 70.8096 0.876636 64.3496 2.58665L63.6941 2.76015C59.1547 3.96176 54.7765 5.70568 50.6541 7.95426L48.7424 8.99704C43.0089 12.1244 37.6995 15.973 32.9437 20.4491L31.4762 21.8303L29.0266 24.8923C25.2549 29.6068 21.9919 34.7066 19.2919 40.1068C16.2509 45.5129 13.6575 51.159 11.5378 56.9883L8.63057 64.9831L4.56912 84.275L3.18636 93.647C1.06497 108.025 0 122.54 0 137.074V155.45C0 161.13 0.403161 166.803 1.20644 172.426L1.38918 173.705C2.15415 179.06 3.33746 184.347 4.92822 189.517L6.84065 195.732C8.02955 199.596 9.68203 203.302 11.762 206.768L12.4757 207.958C14.9703 212.115 18.1644 215.811 21.9172 218.881C25.5565 221.859 29.669 224.206 34.0838 225.825L36.4413 226.689C40.5451 228.194 44.8819 228.964 49.2529 228.964C51.6115 228.964 53.9647 228.74 56.2809 228.294L57.4252 228.074C63.0966 226.984 68.5324 224.905 73.4846 221.934C76.9421 219.859 80.1322 217.369 82.9833 214.517L84.7699 212.731C88.154 209.347 91.1812 205.624 93.804 201.621L99.5054 192.919L105.09 181.75L108.644 173.119H111.895C116.803 173.119 121.679 172.328 126.335 170.776L126.846 170.605C129.931 169.577 132.882 168.187 135.64 166.464C138.279 164.814 140.723 162.869 142.925 160.668L146.212 157.381H185.303C187.307 160.052 189.904 162.22 192.89 163.713L193.426 163.981L198.549 166.994C200.883 168.367 203.337 169.523 205.881 170.448C210.74 172.215 215.871 173.119 221.041 173.119H222.364L226.933 181.75L228.397 184.677C231.139 190.162 234.325 195.415 237.922 200.382L239.503 202.565C241.95 205.944 244.661 209.123 247.611 212.073L250.165 214.628C252.944 217.406 256.046 219.84 259.407 221.876L260.768 222.701C267.527 226.798 275.281 228.964 283.185 228.964H284.028C291.187 228.964 298.216 227.05 304.387 223.42C309.546 220.385 313.961 216.236 317.31 211.275L319.611 207.866C323.785 201.681 326.734 194.753 328.298 187.458L328.885 184.719C329.958 179.707 330.5 174.596 330.5 169.471V160.079C330.5 151.862 329.872 143.656 328.623 135.534L322.377 94.9362L313.873 57.5171C312.776 52.6893 311.242 47.9709 309.292 43.4203L307.012 38.1002C304.418 32.0475 300.693 26.5454 296.037 21.8891C290.649 16.5011 284.137 12.3691 276.968 9.78817L272.129 8.04606C265.738 5.74549 258.998 4.56912 252.206 4.56912H251.585C244.029 4.56912 236.552 6.10392 229.606 9.08045C222.487 12.1316 216.081 16.6317 210.796 22.2943L204.595 28.9378Z" fill="#485B69"/>
<path d="M204.5 29.5H129.5L119.491 18.7757C116.838 15.9337 113.884 13.389 110.68 11.1866C103.343 6.1419 94.8001 3.00002 85.9456 2.05804C79.4011 1.36181 72.7384 1.86337 66.376 3.54752L65.7305 3.71839C61.2598 4.90183 56.9478 6.61937 52.8878 8.83392L51.005 9.86093C45.3582 12.941 40.1291 16.7314 35.4453 21.1397L34 22.5L31.5874 25.5157C27.8729 30.1589 24.6592 35.1815 22 40.5C19.005 45.8244 16.4509 51.385 14.3632 57.1262L11.5 65L7.5 84L6.13816 93.2303C4.04886 107.391 3 121.686 3 136V154.098C3 159.692 3.39706 165.279 4.18819 170.817L4.36816 172.077C5.12156 177.351 6.28696 182.558 7.85366 187.649L9.73716 193.771C10.9081 197.576 12.5355 201.226 14.584 204.64L15.2869 205.812C17.7438 209.906 20.8896 213.546 24.5856 216.57C28.1699 219.503 32.2201 221.814 36.5682 223.408L38.89 224.26C42.9317 225.742 47.2029 226.5 51.5077 226.5C53.8307 226.5 56.1483 226.279 58.4294 225.84L59.5565 225.624C65.1421 224.55 70.4956 222.503 75.3729 219.576C78.7781 217.533 81.9199 215.08 84.7279 212.272L86.4875 210.513C89.8203 207.18 92.8018 203.513 95.3848 199.571L101 191L106.5 180L110 171.5H113.202C118.036 171.5 122.838 170.721 127.424 169.192L127.927 169.024C130.965 168.012 133.872 166.642 136.587 164.945C139.187 163.32 141.594 161.406 143.762 159.238L147 156H185.5C187.473 158.631 190.031 160.766 192.972 162.236L193.5 162.5L198.546 165.468C200.844 166.82 203.261 167.958 205.766 168.87C210.552 170.61 215.605 171.5 220.697 171.5H222L226.5 180L227.941 182.883C230.643 188.285 233.78 193.458 237.323 198.35L238.88 200.501C241.289 203.828 243.959 206.959 246.865 209.865L249.381 212.381C252.117 215.117 255.173 217.514 258.482 219.52L259.823 220.332C266.48 224.367 274.116 226.5 281.901 226.5H282.731C289.782 226.5 296.705 224.615 302.782 221.04C307.863 218.051 312.212 213.964 315.51 209.078L317.776 205.721C321.887 199.63 324.791 192.807 326.331 185.622L326.909 182.925C327.967 177.989 328.5 172.955 328.5 167.907V158.658C328.5 150.564 327.882 142.483 326.651 134.484L320.5 94.5L312.124 57.647C311.044 52.8921 309.534 48.2452 307.613 43.7634L305.367 38.5238C302.813 32.5627 299.144 27.1438 294.558 22.5579C289.251 17.2515 282.839 13.182 275.778 10.6401L271.012 8.92433C264.718 6.65857 258.08 5.5 251.39 5.5H250.779C243.337 5.5 235.973 7.01158 229.133 9.94307C222.121 12.9481 215.812 17.3801 210.607 22.957L204.5 29.5Z" fill="#506779"/>
<path d="M70 41.5C70 36.8056 73.8056 33 78.5 33V33C83.1944 33 87 36.8056 87 41.5V75.5C87 80.1944 83.1944 84 78.5 84V84C73.8056 84 70 80.1944 70 75.5V41.5Z" fill="#EEEEEE"/>
<path d="M53 58.5C53 53.8056 56.8056 50 61.5 50H95.5C100.194 50 104 53.8056 104 58.5V58.5C104 63.1944 100.194 67 95.5 67H61.5C56.8056 67 53 63.1944 53 58.5V58.5Z" fill="#EEEEEE"/>
<rect x="133" y="78" width="27" height="13" rx="4" fill="#D9D9D9"/>
<circle cx="234" cy="59" r="10" fill="#CEA428"/>
<circle cx="235" cy="59" r="10" fill="#F3C53E"/>
<circle cx="256" cy="38" r="10" fill="#137664"/>
<circle cx="257" cy="38" r="10" fill="#156E5E"/>
<circle cx="276" cy="59" r="10" fill="#CC3337"/>
<circle cx="277" cy="59" r="10" fill="#DC4145"/>
<circle cx="256" cy="81" r="10" fill="#118DC2"/>
<circle cx="257" cy="81" r="10" fill="#19A1DC"/>
<circle cx="219.5" cy="122.5" r="22.5" fill="#8E9B9A"/>
<circle cx="115.5" cy="122.5" r="22.5" fill="#8E9B9A"/>
<rect x="135" y="78" width="27" height="13" rx="4" fill="#EEEEEE"/>
<rect x="177" y="78" width="27" height="13" rx="4" fill="#D9D9D9"/>
<rect x="178" y="78" width="27" height="13" rx="4" fill="#EEEEEE"/>
<circle cx="229" cy="114" r="10" fill="#9FAFB1"/>
<circle cx="125" cy="114" r="10" fill="#9FAFB1"/>
</svg>
